<svg width="117" height="291" viewBox="0 0 117 291" fill="none" xmlns="http://www.w3.org/2000/svg">
<path id="car_overlay" d="M86.5938 272.129C87.9997 272.129 89.2175 273.106 89.5225 274.479L92.1885 286.479C92.6046 288.352 91.1789 290.129 89.2598 290.129H27.3428C25.3911 290.129 23.9583 288.295 24.4316 286.401L27.4316 274.401C27.7655 273.066 28.9662 272.129 30.3428 272.129H86.5938ZM18 239.129C21.866 239.129 24.9999 242.263 25 246.129V274.129C25 277.995 21.866 281.129 18 281.129H7C3.13401 281.129 0 277.995 0 274.129V246.129C5.81773e-05 242.263 3.13404 239.129 7 239.129H18ZM110 239.129C113.866 239.129 117 242.263 117 246.129V274.129C117 277.995 113.866 281.129 110 281.129H99C95.134 281.129 92 277.995 92 274.129V246.129C92.0001 242.263 95.134 239.129 99 239.129H110ZM31 253.129C32.6568 253.129 33.9999 254.472 34 256.129V265.129C34 266.786 32.6569 268.129 31 268.129C29.3431 268.129 28 266.786 28 265.129V256.129C28.0001 254.472 29.3432 253.129 31 253.129ZM86 253.129C87.6568 253.129 88.9999 254.472 89 256.129V265.129C89 266.786 87.6569 268.129 86 268.129C84.3431 268.129 83 266.786 83 265.129V256.129C83.0001 254.472 84.3432 253.129 86 253.129ZM78 255.129C79.1045 255.129 79.9999 256.024 80 257.129V265.129C80 266.234 79.1046 267.129 78 267.129H40C38.8954 267.129 38 266.234 38 265.129V257.129C38.0001 256.024 38.8955 255.129 40 255.129H78ZM16.6055 154.629C17.6679 154.629 18.5467 155.449 18.6221 156.509C19.06 162.666 20.7824 182.744 25.5 198.629C30.7172 216.196 36.9727 229.062 37.8867 230.902C37.9645 231.059 38.0186 231.216 38.0547 231.388L41.4922 247.717C41.7539 248.96 40.8055 250.129 39.5352 250.129H36.4932C35.6078 250.129 34.8271 249.547 34.5752 248.698L31.5674 238.561C31.3155 237.712 30.5377 237.129 29.6523 237.129H23.8271C23.2968 237.129 22.7888 236.939 22.5068 236.49C17.0101 227.736 14.9224 168.445 14.5596 156.662C14.5252 155.538 15.4287 154.629 16.5537 154.629H16.6055ZM100.446 154.629C101.571 154.629 102.475 155.538 102.44 156.662C102.078 168.445 99.9899 227.736 94.4932 236.49C94.2112 236.939 93.7032 237.129 93.1729 237.129H87.3477C86.4623 237.129 85.6845 237.712 85.4326 238.561L82.4248 248.698C82.1729 249.547 81.3922 250.129 80.5068 250.129H77.4648C76.1945 250.129 75.2461 248.96 75.5078 247.717L78.9453 231.388C78.9814 231.216 79.0355 231.059 79.1133 230.902C80.0273 229.062 86.2828 216.196 91.5 198.629C96.2176 182.744 97.94 162.666 98.3779 156.509C98.4533 155.449 99.3321 154.629 100.395 154.629H100.446ZM46.5 166.129L43.3984 172.629H34.5C34.5 172.629 33.6017 189.129 38.5 199.629C43.3901 210.111 49.9776 215.61 50 215.629V249.129H46.5C46.4951 249.08 44.9942 234.116 41.5 226.129C37.9999 218.129 21 184.629 21 154.129H38.5L46.5 166.129ZM60 217.129C61.1045 217.129 61.9999 218.024 62 219.129V247.129C62 248.234 61.1046 249.129 60 249.129H57C55.8954 249.129 55 248.234 55 247.129V219.129C55.0001 218.024 55.8955 217.129 57 217.129H60ZM95 154.129C95 184.629 78.0001 218.129 74.5 226.129C71.0058 234.116 69.5049 249.08 69.5 249.129H66V215.629C66.0219 215.611 72.6098 210.111 77.5 199.629C82.3983 189.129 81.5 172.629 81.5 172.629H72.6016L69.5 166.129L77.5 154.129H95ZM65.458 166.129C66.3665 166.129 67.1614 166.742 67.3926 167.62L69.1621 174.346C69.3668 175.123 70.0175 175.703 70.8135 175.816L74.7832 176.384C75.7682 176.525 76.4998 177.368 76.5 178.363V195.11C76.5 195.75 76.1942 196.352 75.6768 196.729L71.127 200.037C71.0425 200.099 70.9625 200.166 70.8887 200.24L66.9023 204.227C66.6394 204.49 66.4553 204.821 66.3701 205.183L64.8633 211.587C64.6507 212.49 63.8441 213.129 62.916 213.129H54.5361C53.6303 213.129 52.838 212.52 52.6045 211.645L51.1221 206.088C51.0417 205.786 50.8919 205.508 50.6846 205.274L47 201.129L41.0342 194.704C40.6909 194.334 40.5 193.848 40.5 193.344V178.389C40.5 177.383 41.2474 176.533 42.2451 176.404L46.9717 175.797C47.7636 175.695 48.4186 175.132 48.6387 174.364L50.585 167.578C50.8308 166.721 51.6147 166.129 52.5068 166.129H65.458ZM45.5449 110.872C46.2103 110.532 47 111.016 47 111.763V124.16C47 124.457 46.8684 124.739 46.6406 124.929L35.1133 134.534C35.0382 134.597 34.9542 134.648 34.8643 134.687L17.2256 142.184C16.4052 142.532 15.5728 141.714 15.9072 140.888L23.3604 122.475C23.4506 122.252 23.6178 122.068 23.832 121.959L45.5449 110.872ZM71 111.763C71 111.016 71.7897 110.532 72.4551 110.872L94.168 121.959C94.3822 122.068 94.5494 122.252 94.6396 122.475L102.093 140.888C102.427 141.714 101.595 142.532 100.774 142.184L83.1357 134.687C83.0458 134.648 82.9618 134.597 82.8867 134.534L71.3594 124.929C71.1316 124.739 71 124.457 71 124.16V111.763ZM18 50.129C21.866 50.129 24.9999 53.263 25 57.129V83.129C25 86.995 21.866 90.129 18 90.129H8C4.13401 90.129 1 86.995 1 83.129V57.129C1.00005 53.263 4.13404 50.129 8 50.129H18ZM109 50.129C112.866 50.129 116 53.263 116 57.129V83.129C116 86.995 112.866 90.129 109 90.129H99C95.134 90.129 92 86.995 92 83.129V57.129C92.0001 53.263 95.134 50.129 99 50.129H109ZM30 61.129C31.6568 61.129 32.9999 62.4722 33 64.129V76.129C33 77.7858 31.6569 79.129 30 79.129C28.3431 79.129 27 77.7858 27 76.129V64.129C27.0001 62.4722 28.3432 61.129 30 61.129ZM87 61.129C88.6568 61.129 89.9999 62.4722 90 64.129V76.129C90 77.7858 88.6569 79.129 87 79.129C85.3431 79.129 84 77.7858 84 76.129V64.129C84.0001 62.4722 85.3432 61.129 87 61.129ZM51.8057 0.126032C53.1118 -0.357242 54.5 0.609324 54.5 2.00201V5.39263C54.5 6.15012 54.072 6.84289 53.3945 7.1817L47.6055 10.0762C46.9279 10.415 46.5 11.1078 46.5 11.8653V28.2139C46.4999 28.795 46.2474 29.3477 45.8076 29.7276L35.8906 38.2911C35.6341 38.5125 35.3258 38.6659 34.9941 38.7354L6.91016 44.6241C5.66763 44.8844 4.5 43.9356 4.5 42.6661V19.0215C4.50001 18.1847 5.02088 17.436 5.80566 17.1456L51.8057 0.126032ZM62 2.00201C62 0.609324 63.3882 -0.357242 64.6943 0.126032L110.694 17.1456C111.479 17.436 112 18.1847 112 19.0215V42.6661C112 43.9356 110.832 44.8844 109.59 44.6241L81.5059 38.7354C81.1742 38.6659 80.8659 38.5125 80.6094 38.2911L70.6924 29.7276C70.2526 29.3477 70.0001 28.795 70 28.2139V11.8653C70 11.1078 69.5721 10.415 68.8945 10.0762L63.1055 7.1817C62.428 6.84289 62 6.15012 62 5.39263V2.00201Z" fill="#D9D9D9" style="fill:#D9D9D9;fill:color(display-p3 0.8510 0.8510 0.8510);fill-opacity:1;"/>
</svg>
