<svg width="4229" height="2444" viewBox="0 0 4229 2444" fill="none" xmlns="http://www.w3.org/2000/svg">
<path d="M2167.49 265C2214.69 278.47 2259.85 302.65 2294.95 324.94C2404.02 394.2 2617.95 556.69 2762.48 688.21C2879.68 794.79 3019.63 973.07 3178.48 1218.07C3204.41 1258.07 3176.76 1291.78 3160.24 1311.94C3142.45 1333.63 3135.03 1344.94 3138.65 1361.69C3155.07 1438.03 3213.33 1524.9 3230.8 1549.69C3295.38 1641.42 3383.32 1754.52 3466 1852.25C3541.42 1941.38 3600 1994.86 3702.81 2081.03C3742.41 2114.23 3875.6 2178.03 3947.13 2212.24C3974.25 2225.24 3993.85 2234.61 4003.13 2239.68C4004.78 2240.59 4007.04 2241.68 4009.74 2242.95C4031.99 2253.63 4078.27 2275.86 4090.42 2318.5C4094.88 2334.17 4096.34 2358.85 4077.98 2387.62C4033.04 2458.01 3956.15 2415.62 3927.26 2399.67C3922.12 2396.85 3917.54 2394.27 3913.66 2392.49C3890.6 2381.95 3862.28 2360.7 3832.28 2338.21C3806.45 2318.83 3774.28 2294.72 3759.69 2289.83C3712.08 2273.83 3657.69 2257.83 3605.12 2242.28C3561.81 2229.5 3520.88 2217.43 3487.02 2206.34C3402.48 2178.69 3293.96 2138.72 3206.75 2106.6L3161.8 2090.06C3100.45 2067.56 2989.3 2025.46 2934.22 1996.39C2726.94 1887.02 2266.05 1639.39 2006.8 1499.7C1885.09 1434.1 1726.98 1345.58 1632.52 1292.7L1609.52 1279.85C1573.68 1259.8 1587.61 1218.94 1594.31 1199.31C1595.31 1196.44 1596.61 1192.57 1597.7 1189.03C1532.46 1152.03 1407.03 1086.41 1274.7 1017.2C1095.86 923.73 893.161 817.73 773.671 748.4C641.591 671.73 546.541 589.87 445.601 465.86L436.541 454.6C414.141 426.6 386.251 391.81 359.611 384.2C354.501 384.49 336.491 395.99 325.721 402.85C288.451 426.67 219.031 470.93 159.531 393.71C140.741 369.34 133.281 342.01 137.931 314.71C148.361 253.54 214.451 210.59 253.931 184.92C257.661 182.48 261.061 180.27 264.011 178.29C334.121 131.23 390.621 95.6901 479.321 66.7801C583.481 32.7901 804.771 -9.39993 897.051 1.86007C939.671 7.00007 956.881 43.1901 969.511 69.6201C975.811 82.8101 983.681 99.2401 990.441 101.17C1030.83 112.67 1089.85 113.11 1158.17 113.63C1194.24 113.89 1231.56 114.18 1270.38 116.11C1280.06 116.6 1297.28 111.32 1315.5 105.74C1361.17 91.7401 1430.19 70.6101 1520.84 93.5001C1583.2 109.31 1641.92 156.02 1698.84 201.27C1713.56 213 1728.02 224.52 1742.09 235.07C1766.82 253.57 1791.27 277.55 1814.9 300.74C1851.9 337.01 1893.63 378.13 1923.9 382.25C1934.04 383.64 1936.75 384.01 1954.33 350.87C1972.52 316.56 2000.01 264.71 2075.81 255.67C2105.81 252.08 2137.13 256.34 2167.56 265.03M3118.86 1252.75C2963.99 1014.14 2828.53 841.38 2716.19 739.21C2574.24 610.1 2364.73 450.87 2258.1 383.21C2190.82 340.49 2127.36 318.96 2083.97 324.14C2045.97 328.69 2033.05 349.55 2015.21 383.22C1999.21 413.34 1975.08 458.86 1914.54 450.57C1861.93 443.36 1813.47 395.89 1766.68 349.99C1744.68 328.37 1721.87 305.99 1700.83 290.26C1686.23 279.35 1671.23 267.41 1655.96 255.26C1604.8 214.55 1551.45 172.17 1504.05 160.38C1432.05 142.21 1378.65 158.55 1335.75 171.7C1310.55 179.41 1288.75 186.08 1267.04 185C1229.64 183.15 1193.04 182.88 1157.71 182.61C1084.37 182.05 1021.02 181.56 971.661 167.51H971.581C934.911 157 919.001 123.68 907.351 99.3601C902.231 88.7101 893.811 70.8701 888.711 70.2601C814.581 61.2101 607.271 97.5201 500.711 132.26C420.241 158.47 370.001 190.14 302.431 235.48C299.231 237.61 295.551 240.02 291.481 242.66C265.431 259.59 211.221 294.83 205.881 326.25C204.881 331.86 204.991 339.81 214.111 351.63C232.171 375.09 242.601 374.16 288.641 344.77C315.281 327.77 345.471 308.5 378.531 317.94C426.311 331.58 461.831 375.94 490.341 411.54L499.041 422.35C595.591 541 682.291 615.68 808.281 688.79C926.441 757.37 1128.43 863 1306.65 956.18C1453.97 1033.18 1581.21 1099.75 1643.65 1135.98C1681.3 1157.81 1666.59 1200.91 1659.53 1221.62C1658.91 1223.45 1658.16 1225.62 1657.45 1227.75L1666.11 1232.6C1760.4 1285.39 1918.22 1373.74 2039.44 1439.08C2298.57 1578.76 2759.24 1826.23 2966.32 1935.48C3019.76 1963.7 3137.39 2007.76 3185.47 2025.4L3230.47 2041.96C3317.14 2073.89 3425.01 2113.62 3508.35 2140.89C3541.25 2151.66 3581.71 2163.58 3624.53 2176.23C3677.72 2191.91 3732.7 2208.16 3781.53 2224.52C3806.68 2232.96 3839.15 2257.33 3873.53 2283.12C3898.07 2301.53 3925.91 2322.41 3942.22 2329.86C3947.42 2332.24 3953.6 2335.59 3960.43 2339.36C4006.35 2364.69 4013.5 2360.49 4019.79 2350.58C4022.31 2346.63 4025.1 2341.14 4024.04 2337.43C4020.38 2324.6 3989.84 2309.93 3979.82 2305.11C3975.74 2303.11 3972.35 2301.5 3969.92 2300.11C3962.29 2295.94 3941.44 2285.96 3917.28 2274.39C3809.73 2222.91 3701.15 2169.63 3658.44 2133.83C3554.67 2046.83 3491.51 1989.18 3413.29 1896.74C3329.37 1797.55 3240.06 1682.64 3174.36 1589.36C3149.55 1554.11 3089.82 1462.79 3071.18 1376.17C3060.18 1325.17 3088.27 1290.89 3106.85 1268.23C3110.69 1263.54 3116.11 1256.94 3118.72 1252.7" fill="white"/>
</svg>
