<svg width="4064" height="2444" viewBox="0 0 4064 2444" fill="none" xmlns="http://www.w3.org/2000/svg">
<g clip-path="url(#clip0_13_582)">
<path d="M304.699 2444C295.381 2444.28 286.054 2443.86 276.799 2442.74C267.994 2441.55 259.461 2438.84 251.579 2434.74C244.513 2431.29 237.687 2427.37 231.149 2423C224.071 2418.21 217.45 2412.78 211.369 2406.78C205.43 2400.95 200.034 2394.59 195.249 2387.78C190.361 2380.77 186.164 2373.3 182.719 2365.48C178.336 2355.91 175.087 2345.86 173.039 2335.53C171.198 2325.59 170.221 2315.52 170.119 2305.41C169.84 2298.11 170.468 2290.8 171.989 2283.66C173.482 2276.69 175.538 2269.86 178.139 2263.22C180.823 2256.49 184.124 2250.02 187.999 2243.89C191.334 2238.55 194.967 2233.41 198.879 2228.48C202.481 2223.85 206.32 2219.4 210.379 2215.16C213.953 2211.51 217.736 2208.08 221.709 2204.87C226.879 2200.66 230.269 2198.66 257.399 2185.21C271.999 2178 294.439 2167 322.999 2153L488.529 2071.66C526.339 2053.05 562.159 2035.42 587.869 2022.82C634.599 1999.92 648.419 1993.39 661.749 1987.38C675.079 1981.37 687.979 1975.9 700.649 1970.48C713.649 1964.93 725.939 1959.66 738.369 1954.61C751.229 1949.44 764.139 1944.53 775.899 1940.33C787.829 1936.09 798.599 1932.6 809.019 1929.46C820.599 1926 830.659 1923.29 839.769 1921.24C849.419 1919.03 858.369 1917.46 865.509 1916.24C873.848 1914.79 882.267 1913.86 890.719 1913.44C901.199 1912.81 917.199 1912.31 932.769 1911.98L945.519 1911.76C955.679 1911.59 965.299 1911.44 973.679 1911.07C982.886 1910.71 992.067 1909.85 1001.18 1908.48C1008.82 1907.31 1017.31 1905.65 1025.1 1903.79C1031.98 1902.17 1037.22 1900.65 1042.1 1899.14C1046.98 1897.63 1051.27 1896.23 1056.1 1894.64L1057.7 1894.11C1063.7 1892.11 1070.39 1890.04 1076.7 1888.19C1083.27 1886.18 1089.95 1884.53 1096.7 1883.25C1103.21 1882.12 1109.81 1881.62 1116.42 1881.74C1122.63 1881.77 1128.82 1882.23 1134.97 1883.1C1141.13 1884.01 1147.2 1885.46 1153.1 1887.45C1158.93 1889.38 1164.61 1891.71 1170.1 1894.45C1175.73 1897.31 1181.19 1900.49 1186.46 1903.96C1191.24 1907.1 1195.85 1910.48 1200.28 1914.1C1204.72 1917.66 1209.53 1921.86 1214.38 1926.62C1218.94 1931.09 1223.53 1936.03 1228.15 1941.2L1240.3 1954.74C1243.31 1958.16 1246.53 1961.39 1249.94 1964.41C1253.15 1967.05 1256.54 1969.45 1260.09 1971.61C1263.01 1973.41 1266.04 1975.03 1269.15 1976.47C1271.97 1977.75 1274.83 1978.92 1277.36 1979.78C1278.48 1980.21 1279.66 1980.48 1280.86 1980.58C1284.55 1980.99 1289.33 1981.11 1294.58 1981.2C1300.37 1981.28 1306.58 1981.2 1311.8 1980.98C1314.72 1980.91 1317.62 1980.52 1320.46 1979.82C1323.4 1979.02 1328.02 1977.24 1341.89 1971.54C1356.98 1965.33 1381.82 1955.01 1398.33 1948.03C1414.39 1941.23 1422.33 1937.7 1430.01 1934.17C1436.01 1931.4 1443.53 1927.81 1449.34 1924.51C1452.88 1922.6 1456.21 1920.31 1459.28 1917.7C1461.53 1915.59 1463.58 1913.28 1465.41 1910.8C1466.36 1909.67 1467.22 1908.47 1467.99 1907.21C1468.5 1905.89 1468.9 1904.53 1469.19 1903.14C1469.92 1900.05 1470.57 1896.45 1471.19 1891.86C1471.62 1888.62 1472.04 1884.86 1472.47 1881.02L1473.47 1872.08C1474.37 1864.25 1475.47 1856.58 1476.8 1849.49C1478.34 1841.13 1480.66 1832.94 1483.71 1825.01C1487.13 1816.29 1491.28 1807.86 1496.09 1799.82C1500.93 1791.73 1506.49 1784.08 1512.69 1776.97C1518.84 1770.02 1525.53 1763.57 1532.69 1757.67C1537.29 1753.82 1542.35 1749.87 1547.32 1746L1559.59 1736.3C1563.78 1732.94 1567.74 1729.76 1571.59 1726.85C1577.86 1722.09 1584.41 1717.68 1591.19 1713.67C1597.31 1710.07 1604.02 1706.57 1611.12 1703.29C1617.97 1700.09 1625.02 1697.33 1632.23 1695.03C1640.03 1692.52 1648 1690.59 1656.08 1689.26C1664.42 1687.91 1672.87 1687.32 1681.32 1687.5C1689.66 1687.71 1697.98 1688.43 1706.24 1689.65C1713.24 1690.65 1720.46 1692.07 1728.84 1694.02C1733.9 1695.23 1738.93 1696.52 1743.94 1697.81L1749.33 1699.19C1754.48 1700.6 1759.71 1701.73 1764.99 1702.57C1770.35 1703.26 1775.75 1703.56 1781.15 1703.47C1787.9 1703.54 1794.64 1703.15 1801.34 1702.3C1807.71 1701.38 1814 1699.91 1820.12 1697.92C1825.55 1696.2 1830.84 1694.04 1835.91 1691.44C1840.76 1688.88 1845.44 1686.01 1849.91 1682.84C1855.03 1679.26 1859.81 1675.59 1864.08 1671.96C1868.35 1668.33 1872.6 1664.31 1876.69 1660.09C1880.36 1656.29 1883.59 1652.67 1885.86 1649.79C1887.71 1647.39 1889.4 1644.88 1890.94 1642.27C1893.17 1638.66 1896.33 1633.61 1898.79 1628.82C1900.69 1625.11 1902.34 1621.27 1903.73 1617.34C1904.79 1614.69 1905.61 1611.94 1906.15 1609.14C1906.97 1604.46 1907.46 1599.73 1907.62 1594.98C1907.91 1588.55 1907.85 1581.21 1907.67 1574.31C1907.49 1567.41 1907.12 1560.77 1906.55 1554.31C1906.23 1550.6 1905.84 1547 1905.55 1543.8C1905.26 1540.6 1904.9 1537.8 1904.71 1535.51C1904.26 1530.16 1903.41 1520.21 1908.11 1509.26C1910.98 1502.76 1915.06 1496.85 1920.11 1491.85C1923.39 1488.53 1926.92 1485.46 1930.68 1482.68C1934.86 1479.42 1939.31 1476.53 1943.98 1474.03C1946.45 1472.73 1949.29 1471.36 1952.68 1469.76C1955.05 1468.64 1957.75 1467.36 1960.84 1465.83C1967.57 1462.47 1976.03 1457.92 1984.76 1453.12C1993.49 1448.32 2002.38 1443.3 2011.17 1437.84C2017.74 1433.78 2024.29 1429.47 2030.86 1425.14L2038.37 1420.23C2047.8 1414.05 2057.43 1407.97 2066.85 1402.04C2076.79 1395.76 2085.52 1390.25 2094.73 1384.28C2104.21 1378.14 2114.23 1371.5 2125 1364.35L2126.25 1363.51C2136.82 1356.51 2148.07 1349 2159.63 1341.43L2168.08 1335.91C2177.16 1329.97 2186.45 1323.91 2196.01 1317.39C2202.01 1313.24 2208.25 1308.89 2214.4 1304.59C2221.14 1299.84 2227.83 1295.15 2234.26 1290.78C2246.73 1282.29 2258.52 1274.78 2270.36 1267.68C2281.86 1260.8 2293.21 1254.52 2304.01 1249.01C2314.36 1243.72 2324.89 1238.84 2334.5 1234.83C2342.73 1231.41 2349.94 1228.77 2357.87 1226.29C2367.02 1223.38 2376.42 1221.28 2385.94 1220.04C2399.78 1218.16 2417.21 1217.04 2426.4 1216.61C2433.33 1216.23 2440.02 1215.98 2446.19 1215.76C2451.67 1215.55 2456.68 1215.37 2461.05 1215.12C2469.11 1214.68 2474.45 1214.05 2481.51 1213.03C2488.57 1212.01 2496.63 1210.76 2504.33 1209.13C2510.54 1207.89 2516.65 1206.22 2522.62 1204.13C2525.57 1203.11 2528.4 1201.74 2531.03 1200.06C2531.5 1199.61 2531.9 1199.1 2532.21 1198.53C2531.32 1197.61 2530.21 1196.53 2528.82 1195.24C2526.82 1193.41 2524.6 1191.48 2522.45 1189.6C2519.33 1186.88 2516.27 1184.22 2513.68 1181.78C2506.57 1175.07 2501.54 1168.86 2497.74 1162.14C2493.35 1154.38 2490.62 1145.8 2489.72 1136.93C2488.82 1128.07 2489.78 1119.11 2492.52 1110.63C2495.13 1102.68 2499.33 1095.06 2505.74 1086.7C2511.42 1079.34 2513.98 1075.99 2622.82 974.38C2722.52 881.29 2926.27 691.9 3049.17 578.76C3168.36 469.03 3204.27 437.76 3235.64 412.52C3265.64 388.44 3290.81 370.33 3365.64 316.52L3376.58 308.65C3439.45 263.41 3534.94 194.65 3607.47 142.35L3666.54 99.7901C3734.86 50.5701 3734.97 50.4701 3740.7 45.6401C3748.41 39.1601 3762.7 27.1701 3774.46 18.9901C3788.66 9.20006 3800.73 3.99006 3814.88 1.59006C3827.46 -0.522206 3840.3 -0.522206 3852.88 1.59006C3864.8 3.6584 3876.21 8.02983 3886.46 14.4601C3896.1 20.4723 3904.71 27.9949 3911.96 36.7401C3920.13 46.2619 3926.99 56.832 3932.36 68.1701C3937.62 79.6191 3940.48 92.0236 3940.77 104.62C3941.08 115.32 3939.77 125.7 3937.57 138.96C3935.57 150.96 3932.46 167.21 3929.32 183.69L3918.46 240.22C3914.46 260.58 3909.9 284.13 3905.28 307.32C3900.59 330.82 3895.86 353.96 3891.41 373.32C3887.11 391.89 3882.84 407.93 3877.12 426.97C3871.18 446.73 3864.89 465.6 3858.45 483.11C3851.71 501.46 3844.02 520.37 3836.2 537.78C3829.2 553.48 3822.46 567.06 3813 584.63C3803 603 3792 622.2 3782 638.67C3771.23 656.41 3760 673.49 3747.72 690.87C3735.55 708.07 3722.26 725.61 3710.32 740.28C3699.47 753.59 3688.69 765.84 3675.32 779.96C3663.7 792.27 3652.25 803.83 3640.32 815.33C3627.42 827.73 3614.15 839.88 3600.85 851.45C3588.03 862.61 3573.74 874.45 3555.92 888.82C3539.69 901.88 3521.54 916.14 3503.69 930.03C3487.56 942.6 3468.78 957.1 3451.76 969.31C3435.07 981.24 3419.92 991.14 3405.38 999.59C3392.08 1007.31 3378.47 1014.33 3362.55 1021.69C3347.95 1028.4 3334.02 1034.24 3319.88 1039.52C3304.27 1045.4 3289.21 1050.32 3273.88 1054.52C3257.59 1059.08 3241.05 1062.7 3224.35 1065.36C3208.33 1067.71 3192.2 1069.15 3176.02 1069.67C3154.62 1070.56 3135.69 1070.67 3116.43 1070.05C3094.6 1069.31 3071.33 1067.52 3045.35 1065.43C3021.49 1063.52 2997.99 1061.6 2973.35 1059.26L2945.9 1056.59C2930.83 1055.1 2916.42 1053.68 2904.59 1052.7C2888.14 1051.32 2876.35 1050.8 2865.19 1050.95C2852.19 1051.12 2845.38 1052.08 2842.49 1052.63C2838.73 1053.36 2836.14 1054.47 2830.11 1057.09C2824.08 1059.71 2816.75 1062.87 2811.02 1065.92C2806.88 1068.13 2803.86 1070.19 2790.87 1079.73L2737.56 1119.06C2726.64 1127.12 2720.62 1131.51 2715.65 1135.64C2711.66 1138.89 2707.98 1142.5 2704.65 1146.43C2700.82 1150.96 2697.33 1155.77 2694.19 1160.8C2691.28 1165.54 2688.81 1170.54 2686.82 1175.73C2684.62 1181.68 2682.74 1187.75 2681.19 1193.9C2679.69 1199.64 2678.54 1204.64 2677.63 1209.69C2677.12 1212.46 2676.7 1215.29 2676.28 1218.04C2675.81 1221.04 2675.36 1223.98 2674.88 1226.74C2673.71 1233.76 2671.93 1240.66 2669.58 1247.37C2666.8 1255.15 2663.33 1262.66 2659.2 1269.81C2655 1277.08 2650.36 1284.09 2645.32 1290.81C2640.69 1297.21 2635.4 1303.12 2629.55 1308.43C2624.31 1312.9 2618.59 1316.78 2612.5 1320C2606.48 1323.48 2600.15 1326.41 2593.6 1328.75C2585.91 1331.42 2578.49 1332.65 2569.77 1333.75L2562.63 1334.56C2557.22 1335.15 2550.75 1335.85 2542.82 1336.97C2534.03 1338.22 2519.67 1340.5 2500.95 1344.37C2484.72 1347.71 2466.63 1351.98 2449.95 1356.37C2433.86 1360.66 2419.06 1365.11 2404.73 1370.01C2389.94 1375.01 2376.64 1380.24 2362.89 1386.26C2348.12 1392.74 2332.71 1400.26 2317.09 1408.58C2301.78 1416.73 2285.68 1425.99 2271.71 1434.67C2259.17 1442.47 2248.24 1449.88 2237.25 1457.96C2228.4 1464.51 2219.3 1471.65 2209.44 1479.77C2200.44 1487.14 2194.12 1492.69 2187.44 1498.99C2179.24 1506.85 2171.27 1515.18 2163.86 1523.69C2156.7 1531.91 2148.77 1541.75 2139.59 1553.69C2131.32 1564.53 2125.65 1572.37 2120.71 1579.82C2114.96 1588.52 2109.59 1597.55 2104.19 1606.73L2103.1 1608.57C2097.47 1618.14 2091.7 1627.92 2084.6 1638.66C2076.6 1650.79 2067.4 1663.4 2058.71 1674.19C2050.38 1684.57 2041.49 1694.48 2032.08 1703.89C2023.34 1712.67 2013.76 1721.66 2002.78 1731.38C1991.16 1741.68 1979.84 1751.1 1970.08 1758.6C1958.08 1767.77 1947.5 1774.83 1938.72 1780.51C1925.49 1789.07 1914.29 1795.8 1903.47 1801.71C1890.37 1808.94 1876.86 1815.38 1863 1821C1852.83 1825.11 1842.42 1828.7 1832 1832.28L1822.93 1835.41C1810.54 1839.75 1798.28 1844.31 1787.51 1848.62C1776.9 1852.85 1767.78 1856.8 1759.66 1860.51C1751.54 1864.22 1744.33 1867.69 1737.88 1870.92C1731.78 1873.81 1725.87 1877.09 1720.18 1880.72C1714 1884.72 1705.32 1890.8 1695.79 1897.93C1688.01 1903.74 1681.69 1908.68 1674.18 1915.42C1666.18 1922.55 1657.13 1931.49 1647.29 1941.25C1637.29 1951.15 1626.54 1961.91 1615.84 1973.38C1605.14 1984.85 1594.37 1997.16 1584.84 2008.05L1579.46 2014.21C1571.79 2023.01 1564.71 2031.12 1557.06 2039.67C1547.54 2050.32 1537.24 2061.59 1528.53 2070.82C1519.21 2080.68 1511.8 2088.08 1504.53 2094.82C1496.59 2102.2 1488.94 2108.66 1480.42 2115.22C1471.9 2121.78 1462.42 2128.43 1452.56 2134.86C1442.97 2141.12 1433.32 2146.86 1423.08 2152.57C1413.62 2157.78 1403.25 2163.07 1391.36 2168.79C1378.73 2174.85 1367.29 2179.96 1356.36 2184.45C1344.75 2189.22 1332.21 2193.91 1320.1 2198C1307.71 2202.18 1297.1 2205.34 1287.48 2207.65C1278.03 2209.99 1268.43 2211.68 1258.75 2212.71C1250.54 2213.53 1242.29 2213.86 1234.04 2213.71C1226.31 2213.61 1218.04 2213.31 1211.46 2212.87C1197.3 2212.39 1183.41 2208.8 1170.8 2202.35C1165.02 2199.62 1158.31 2196.25 1151.97 2192.61C1145.13 2188.74 1138.57 2184.4 1132.34 2179.61C1126.39 2174.96 1120.79 2169.89 1115.59 2164.42C1110.93 2159.53 1106.75 2154.64 1102.37 2149.2L1097.57 2143.2C1095.38 2140.45 1093.11 2137.59 1090.7 2134.7C1087.75 2130.98 1084.52 2127.49 1081.04 2124.26C1078.02 2121.72 1074.79 2119.46 1071.37 2117.5C1070.65 2117.03 1069.9 2116.61 1069.13 2116.23C1066.48 2115.61 1063.79 2115.21 1061.08 2115.03C1058.98 2114.86 1056.86 2114.99 1054.8 2115.42C1049.75 2116.48 1044.79 2117.89 1039.95 2119.65C1032.29 2122.28 1022.95 2125.94 1015.19 2129.03L1012.19 2130.25C1004.77 2133.25 998.539 2135.75 992.029 2137.93C983.133 2140.86 974.045 2143.18 964.829 2144.85C955.569 2146.58 944.629 2148.15 933.979 2149.29C923.979 2150.29 915.269 2150.93 906.719 2151.29C896.499 2151.73 888.369 2151.81 881.109 2151.52C873.109 2151.2 865.939 2150.4 857.609 2149.43C849.969 2148.51 841.419 2147.43 833.769 2146.43L828.769 2145.77C823.609 2145.08 818.909 2144.43 814.619 2143.99C809.119 2143.46 803.594 2143.23 798.069 2143.31C789.729 2143.31 778.179 2143.53 769.439 2143.78C760.329 2144.03 755.569 2144.24 749.439 2144.95C742.659 2145.73 734.089 2147.12 724.659 2148.95C713.929 2151.01 704.139 2153.28 694.659 2155.86C683.813 2158.78 673.156 2162.36 662.749 2166.59C652.169 2170.89 639.749 2176.76 627.889 2183.07C618.149 2188.21 608.686 2193.86 599.539 2200C591.742 2205.35 584.22 2211.08 576.999 2217.18C569.779 2223.18 562.999 2229.3 556.909 2235.26C549.739 2242.26 544.289 2248.26 540.959 2252C537.829 2255.58 535.199 2258.82 532.499 2262.12L525.499 2270.55C522.369 2274.32 519.039 2278.28 516.039 2282.31C512.484 2287.12 509.174 2292.11 506.119 2297.25C503.659 2301.25 501.339 2305.25 498.889 2309.46L495.769 2314.74C491.769 2321.54 487.309 2329.14 482.209 2336.97C477.109 2344.8 471.159 2353.12 465.529 2360.35C460.619 2366.74 455.529 2372.73 449.699 2379.16C444.115 2385.35 438.122 2391.15 431.759 2396.53C424.318 2402.73 416.489 2408.45 408.319 2413.65C400.23 2418.85 391.767 2423.45 382.999 2427.4C374.879 2431.01 366.503 2434.02 357.939 2436.4C349.399 2438.82 340.715 2440.7 331.939 2442.03C322.92 2443.3 313.827 2443.97 304.719 2444.03M929.769 1983.44C917.529 1983.72 905.629 1984.12 897.329 1984.61C891.185 1984.88 885.066 1985.55 879.009 1986.61C873.009 1987.61 865.349 1988.92 857.079 1990.81C849.369 1992.55 840.719 1994.86 830.569 1997.89C821.139 2000.71 811.359 2003.89 800.509 2007.72C789.659 2011.55 777.509 2016.2 765.509 2021.01C753.509 2025.82 741.509 2031.01 729.359 2036.17C716.539 2041.64 703.969 2047 691.069 2052.77C678.439 2058.46 665.069 2064.77 619.069 2087.27C593.359 2099.84 557.509 2117.44 519.719 2136.03L353.869 2217.35C325.469 2231.25 303.109 2242.17 288.509 2249.41C283.149 2252.06 266.769 2260.17 263.909 2261.96C262.989 2262.76 260.999 2264.52 258.909 2266.61C256.489 2269.15 254.209 2271.82 252.079 2274.61C249.653 2277.64 247.399 2280.81 245.329 2284.1C243.623 2286.78 242.161 2289.6 240.959 2292.54C239.829 2295.49 238.92 2298.52 238.239 2301.61C237.949 2302.96 237.869 2303.42 237.929 2306.98C237.97 2312.71 238.488 2318.43 239.479 2324.08C240.454 2328.74 241.954 2333.27 243.949 2337.59C245.467 2341.07 247.319 2344.39 249.479 2347.51C251.665 2350.6 254.125 2353.48 256.829 2356.13C259.756 2359.02 262.943 2361.63 266.349 2363.93C270.23 2366.49 274.272 2368.79 278.449 2370.83C281.149 2372.16 281.449 2372.2 282.959 2372.42C288.856 2373.02 294.785 2373.22 300.709 2373.03C313.191 2373.03 325.609 2371.24 337.579 2367.7C343.159 2366.17 348.618 2364.23 353.909 2361.89C359.793 2359.22 365.475 2356.12 370.909 2352.62C376.7 2348.92 382.257 2344.87 387.549 2340.49C391.727 2336.93 395.656 2333.09 399.309 2329C403.199 2324.73 407.309 2320 411.619 2314.39C416.219 2308.45 421.019 2301.72 425.189 2295.39C429.629 2288.59 433.529 2281.98 436.999 2276.02L440.059 2270.79C442.729 2266.21 445.259 2261.9 447.919 2257.54C451.259 2252.02 455.839 2244.73 461.399 2237.32C465.039 2232.42 469.139 2227.47 473.029 2222.81L479.579 2214.88C482.709 2211.05 485.789 2207.29 489.479 2203.06C495.379 2196.33 502.109 2189.27 508.949 2182.6C516.209 2175.5 524.219 2168.28 532.709 2161.17C541.576 2153.67 550.822 2146.64 560.409 2140.09C571.453 2132.66 582.882 2125.83 594.649 2119.61C604.399 2114.41 619.369 2106.85 635.459 2100.29C648.251 2095.07 661.349 2090.63 674.679 2087C685.679 2084 697.049 2081.34 709.339 2078.94C720.499 2076.76 730.519 2075.15 739.069 2074.14C748.379 2073.07 755.609 2072.79 764.829 2072.54C774.049 2072.29 786.429 2071.98 795.329 2072C803.122 2071.9 810.913 2072.24 818.669 2073C823.579 2073.49 828.989 2074.21 834.919 2075L839.769 2075.64C847.199 2076.64 855.459 2077.64 862.769 2078.51C869.159 2079.26 874.769 2079.91 880.969 2080.16C887.169 2080.41 893.969 2080.22 900.969 2079.92C908.239 2079.59 915.679 2079.09 924.139 2078.18C932.969 2077.24 942.299 2075.88 949.779 2074.48C956.035 2073.35 962.206 2071.8 968.249 2069.82C973.479 2068.06 978.559 2065.97 984.639 2063.51L987.809 2062.22C996.539 2058.73 1007.03 2054.64 1015.59 2051.69C1023.54 2048.83 1031.68 2046.58 1039.97 2044.94C1047.44 2043.52 1055.06 2043.07 1062.65 2043.6C1069.86 2044.07 1077 2045.21 1084 2047C1091.19 2048.97 1098.06 2051.97 1104.38 2055.93C1111.59 2060.15 1118.4 2065 1124.75 2070.43C1131.32 2076.34 1137.42 2082.76 1142.98 2089.63C1145.7 2092.94 1148.22 2096.1 1150.65 2099.13L1155.12 2104.69C1158.21 2108.51 1161.12 2111.93 1164.25 2115.22C1166.89 2118.01 1169.73 2120.59 1172.76 2122.95C1176.28 2125.63 1179.99 2128.07 1183.85 2130.24C1188.44 2132.87 1193.35 2135.31 1197.51 2137.24C1199.77 2138.37 1202.11 2139.35 1204.51 2140.15C1207.25 2140.73 1210.04 2141.07 1212.84 2141.15C1218.36 2141.51 1225.25 2141.75 1231.68 2141.82C1237.38 2141.96 1243.08 2141.75 1248.75 2141.18C1255.43 2140.45 1262.06 2139.27 1268.58 2137.64C1276.22 2135.78 1285.07 2133.15 1295.58 2129.64C1306.35 2125.97 1317.52 2121.8 1327.85 2117.54C1337.58 2113.54 1347.85 2108.91 1359.35 2103.4C1369.35 2098.6 1378.78 2093.81 1387.72 2088.87C1396.51 2084.02 1404.78 2079.05 1412.98 2073.68C1421.46 2068.14 1429.64 2062.37 1436.67 2056.97C1443.51 2051.71 1449.67 2046.49 1456.04 2040.57C1462.18 2034.87 1468.61 2028.4 1476.91 2019.63C1485.21 2010.86 1495.07 2000.04 1504.14 1989.87C1511.57 1981.55 1518.49 1973.63 1525.96 1965.05L1531.36 1958.86C1541.29 1947.47 1552.5 1934.64 1563.75 1922.58C1575 1910.52 1586.42 1899.07 1596.97 1888.58C1606.76 1878.88 1617.1 1868.7 1626.23 1860.49C1635.57 1852.11 1643.45 1845.94 1652.41 1839.23C1660.01 1833.55 1671.08 1825.47 1680.69 1819.3C1688.42 1814.37 1696.43 1809.91 1704.69 1805.93C1711.69 1802.42 1719.52 1798.64 1728.43 1794.56C1737.34 1790.48 1747.5 1786.07 1759.22 1781.39C1764.22 1779.39 1769.43 1777.39 1774.86 1775.32C1769.24 1775.13 1763.63 1774.64 1758.06 1773.85C1750.21 1772.67 1742.44 1771.03 1734.79 1768.95L1729.21 1767.52C1724.62 1766.33 1720.01 1765.14 1715.5 1764.06C1710.06 1762.79 1704.68 1761.66 1698.94 1760.83C1693.61 1760.01 1688.23 1759.53 1682.84 1759.39C1678.49 1759.26 1674.14 1759.55 1669.84 1760.24C1665.05 1761.05 1660.34 1762.2 1655.72 1763.69C1651.13 1765.16 1646.63 1766.92 1642.27 1768.96C1637.63 1771.11 1632.82 1773.55 1628.27 1776.24C1623.69 1778.96 1619.26 1781.95 1615.02 1785.17C1611.68 1787.71 1608.19 1790.5 1604.51 1793.46L1591.51 1803.72C1587.16 1807.13 1582.71 1810.59 1578.66 1813.96C1574.13 1817.65 1569.91 1821.69 1566.02 1826.05C1562.48 1830.12 1559.31 1834.5 1556.55 1839.13C1553.74 1843.8 1551.31 1848.69 1549.31 1853.76C1547.77 1857.78 1546.62 1861.94 1545.86 1866.18C1544.86 1871.54 1544.05 1877.43 1543.35 1883.54L1542.35 1891.99C1541.86 1896.43 1541.35 1900.7 1540.87 1904.51C1540.08 1910.72 1538.97 1916.88 1537.54 1922.98C1536.12 1929.29 1534.02 1935.43 1531.28 1941.28C1528.54 1946.77 1525.21 1951.95 1521.35 1956.72C1517.09 1962.39 1512.32 1967.65 1507.09 1972.44C1500.45 1978.31 1493.19 1983.42 1485.43 1987.7C1477.56 1992.15 1468.77 1996.34 1461.19 1999.83C1453.04 2003.61 1444.55 2007.37 1427.43 2014.61C1410.72 2021.66 1385.59 2032.08 1370.32 2038.33C1355.05 2044.58 1348.01 2047.39 1340.81 2049.33C1333.5 2051.23 1326 2052.35 1318.45 2052.65C1311.84 2052.99 1303.81 2053.06 1296.45 2052.92C1287.62 2052.79 1281.34 2052.46 1276.12 2051.86C1269.87 2051.19 1263.72 2049.8 1257.79 2047.72C1253.07 2046.09 1247.89 2044.02 1242.7 2041.62C1236.98 2038.97 1231.42 2035.98 1226.05 2032.67C1219.32 2028.54 1212.89 2023.93 1206.82 2018.88C1200.96 2013.79 1195.44 2008.32 1190.29 2002.51C1187.64 1999.62 1184.98 1996.63 1182.29 1993.65L1177.68 1988.5C1174.1 1984.5 1170.62 1980.71 1167.23 1977.35C1164.23 1974.45 1161.23 1971.85 1158.5 1969.6C1155.77 1967.35 1153.36 1965.6 1150.5 1963.72C1147.65 1961.82 1144.7 1960.09 1141.65 1958.54C1139.21 1957.34 1136.7 1956.3 1134.12 1955.45C1132 1954.72 1129.82 1954.19 1127.61 1953.86C1124.59 1953.45 1121.55 1953.25 1118.51 1953.24C1115.96 1953.13 1113.41 1953.31 1110.9 1953.76C1106.59 1954.59 1102.33 1955.66 1098.14 1956.97C1092.42 1958.65 1086.34 1960.6 1080.92 1962.34L1079.39 1962.85C1074.18 1964.54 1069.47 1966.07 1064.39 1967.65C1058.32 1969.52 1051.74 1971.41 1043.19 1973.44C1033.68 1975.69 1023.27 1977.72 1013.88 1979.13C1002.42 1980.86 990.871 1981.95 979.289 1982.39C970.379 1982.78 960.119 1982.94 949.289 1983.1L936.779 1983.3L929.779 1983.45M1976.26 1539.73C1976.64 1543.19 1977.03 1546.97 1977.36 1550.81C1978.04 1558.58 1978.48 1566.57 1978.74 1575.1C1978.99 1583.81 1979.01 1592.99 1978.67 1601.2C1978.34 1609.35 1977.45 1617.48 1976.01 1625.51C1974.75 1632.09 1972.93 1638.54 1970.56 1644.8C1968.15 1651.46 1965.32 1657.96 1962.09 1664.26C1960.27 1667.8 1958.15 1671.52 1956.09 1674.95C1965.39 1666.68 1973.46 1659.06 1980.78 1651.7C1988.51 1643.97 1995.81 1635.83 2002.66 1627.31C2009.95 1618.24 2018.02 1607.13 2024.81 1596.89C2031.17 1587.26 2036.35 1578.44 2041.42 1569.82L2042.51 1567.98C2048.51 1557.77 2054.51 1547.74 2060.88 1538.1C2066.69 1529.3 2073.14 1520.36 2082.42 1508.2C2092.48 1495.05 2101.28 1484.2 2109.36 1474.86C2118.12 1464.8 2127.52 1454.95 2137.28 1445.6C2139.4 1443.6 2141.49 1441.6 2143.61 1439.71C2140.61 1441.71 2137.7 1443.56 2134.82 1445.43C2125.36 1451.55 2116.4 1457.19 2107.26 1462.97C2097.09 1469.36 2087.76 1475.25 2078.6 1481.23L2071.25 1486.04C2064.15 1490.68 2057.12 1495.31 2050.02 1499.69C2040.19 1505.77 2030.26 1511.38 2020.61 1516.69C2010.96 1522 2001.61 1527 1994.17 1530.69C1990.62 1532.45 1987.49 1533.93 1984.76 1535.22C1982.47 1536.31 1980.54 1537.22 1978.89 1538.08C1977.97 1538.57 1977.09 1539.12 1976.24 1539.72M2416.51 1289.81C2409.33 1290.36 2403 1290.99 2398.19 1291.63C2392.5 1292.36 2386.9 1293.61 2381.44 1295.36C2375.54 1297.2 2370.33 1299.11 2364.03 1301.73C2356.1 1305 2346.97 1309.25 2338.29 1313.66C2328.83 1318.48 2318.82 1324.04 2308.56 1330.15C2306.97 1331.1 2305.36 1332.06 2303.77 1333.04C2313.31 1328.32 2322.71 1323.93 2331.97 1319.86C2347.52 1313.02 2362.5 1307.17 2379.16 1301.46C2391.25 1297.32 2403.55 1293.46 2416.51 1289.81ZM2563.81 1131.62C2565.26 1132.93 2566.87 1134.32 2568.51 1135.75C2571.23 1138.12 2574.01 1140.53 2576.51 1142.83C2582.22 1147.97 2587.46 1153.62 2592.16 1159.71C2596.91 1165.81 2600.54 1172.72 2602.88 1180.09C2604.89 1186.43 2605.76 1193.08 2605.46 1199.73C2605.77 1197.9 2606.07 1196.04 2606.46 1194.2C2607.67 1187.46 2609.18 1180.81 2611.2 1173.06C2613.4 1164.42 2616.07 1155.9 2619.2 1147.55C2622.72 1138.4 2627.07 1129.59 2632.2 1121.23C2637.15 1113.22 2642.7 1105.59 2648.8 1098.41C2654.67 1091.45 2661.16 1085.05 2668.2 1079.27C2673.84 1074.58 2680.69 1069.48 2693.2 1060.27L2746.5 1020.89C2759.86 1011.07 2766.14 1006.54 2774.96 1001.81C2782.7 997.67 2791.75 993.71 2799.03 990.54C2806.62 987.23 2814.5 983.8 2826.03 981.54C2835.58 979.68 2847.22 978.75 2861.63 978.54C2875.18 978.35 2889.05 978.93 2907.97 980.48C2920.12 981.48 2934.97 982.92 2950.43 984.48L2977.54 987.09C3001.84 989.37 3024.97 991.24 3048.49 993.09C3073.49 995.09 3095.91 996.77 3116.19 997.43C3133.51 998.02 3150.61 997.88 3170.06 997.02C3183.53 996.614 3196.97 995.428 3210.31 993.47C3224.23 991.233 3238 988.194 3251.57 984.37C3264.79 980.7 3277.83 976.43 3291.43 971.3C3303.97 966.6 3316.34 961.41 3329.27 955.44C3343.09 949.04 3354.83 942.98 3366.17 936.39C3378.73 929.08 3392.05 920.39 3406.87 909.74C3422.87 898.26 3440.94 884.3 3456.51 872.15C3474.04 858.5 3491.83 844.47 3507.78 831.63C3524.88 817.86 3538.48 806.54 3550.61 795.99C3562.99 785.19 3575.39 773.84 3587.42 762.25C3598.54 751.54 3609.19 740.77 3620.01 729.25C3632.1 716.41 3641.85 705.34 3651.59 693.38C3662.59 679.91 3674.8 663.71 3686.09 647.77C3697.57 631.52 3707.61 616.21 3717.7 599.63C3727.11 584.17 3737.41 566.13 3746.75 548.81C3755.33 532.81 3761.39 520.61 3767.69 506.57C3774.69 490.8 3781.98 472.98 3788.09 456.34C3794.09 440.14 3799.89 422.63 3805.42 404.28C3810.65 386.79 3814.59 372.06 3818.51 355.08C3822.83 336.37 3827.42 313.97 3831.95 291.21C3836.56 268.16 3841.14 244.75 3845.07 224.56L3855.87 168.33C3858.87 152.39 3861.87 136.73 3863.87 125.16C3865.64 114.52 3866.27 108.94 3866.13 104.59C3866.15 101.695 3865.53 98.8316 3864.3 96.2101C3861.83 91.21 3858.74 86.5428 3855.1 82.3201C3853.02 79.6722 3850.52 77.3877 3847.7 75.5601C3845.88 74.3799 3843.84 73.5868 3841.7 73.2301C3837.72 72.5995 3833.67 72.5995 3829.7 73.2301C3827.86 73.5301 3825.55 73.9201 3818.58 78.7401C3809.58 84.98 3796.43 96.0001 3790.12 101.3C3782.23 107.94 3782.23 107.94 3711.64 158.76L3652.49 201.33C3579.87 253.59 3484.21 322.41 3421.24 367.67L3410.3 375.53C3336.48 428.53 3311.64 446.4 3283.08 469.32C3252.92 493.51 3217.8 524.13 3099.92 632.56C2976.8 745.61 2772.91 935 2673.12 1028C2588.78 1106.65 2567.82 1126.85 2563.8 1131.61" fill="white"/>
</g>
<defs>
<clipPath id="clip0_13_582">
<rect width="4064" height="2444" fill="white"/>
</clipPath>
</defs>
</svg>
