<svg width="4373" height="2833" viewBox="0 0 4373 2833" fill="none" xmlns="http://www.w3.org/2000/svg">
<g clip-path="url(#clip0_13_799)">
<path d="M1683.52 1226.41C1827.68 875.98 1968.52 520.55 2100.77 172.61C2117.3 129.09 2163.96 90.4199 2205.08 69.4899C2250.89 46.1599 2305.42 37.1199 2355.62 38.6699C2408.15 40.2799 2468.5 50.5599 2513.28 78.9699C2550.69 102.71 2584.73 143.48 2603.36 183.28C2619.5 217.76 2625.43 264.95 2617.59 301.82C2609.59 339.24 2584.08 379.66 2555.95 406.13C2530.34 430.23 2491.05 445.74 2461.12 439.32C2424.67 431.51 2386.5 393.45 2371.03 350.42C2359.31 317.83 2308.9 290.05 2282.13 280.48C2264.65 274.24 2223.13 291.56 2207.45 306.56C2186.78 326.33 2167 362.28 2167.15 389.56C2167.31 420.93 2187.15 463.46 2205.08 491.5C2226.62 525.1 2256.28 562.87 2290.43 585.14C2328.98 610.29 2378.43 633.44 2423.19 629C2501.51 621.25 2593.84 605.78 2679.19 593.44C2867.19 566.27 3055.06 539.44 3243.42 515.21C3288.97 509.36 3342.42 504.98 3386.85 515.21C3593.08 562.66 3786.46 613.99 3989.02 671.68C4025.11 681.95 4068.89 691.57 4094.52 714.35C4111.52 729.5 4112.81 762.23 4106.37 780.73C4100.16 798.58 4081.28 809.91 4058.96 818.66C4000.68 841.52 3940.18 863.12 3878.78 875.56C3815.32 888.41 3748.07 888.05 3683.2 886.23C3523.64 881.73 3365.26 865.66 3205.49 856.59C3142.41 853.01 3077.49 846.98 3015.83 856.59C2955.83 865.94 2895.36 890.74 2845.14 921.79C2808.44 944.48 2776.3 978.97 2755.05 1017.79C2730.46 1062.73 2713.6 1114.34 2702.9 1164.79C2691.47 1218.66 2692.26 1277.95 2701.71 1330.79C2711.22 1383.9 2732.28 1434.05 2759.79 1482.52C2798.66 1551 2849.36 1613.07 2887.79 1681.66C2907.79 1717.38 2929.99 1755.97 2935.21 1795.46C2941.06 1839.73 2938.98 1893.05 2920.98 1932.96C2902.63 1973.66 2863.98 2011.11 2826.15 2037.27C2781.76 2068.01 2727.15 2101.14 2674.43 2103.65C2594.43 2107.46 2510.51 2067.26 2427.87 2056.24C2391.97 2051.45 2352.87 2051.73 2325.93 2066.91C2302.33 2080.18 2288.08 2111.22 2290.37 2140.4C2294.37 2191.83 2318.85 2245.29 2337.78 2298.05C2353.78 2342.63 2363.31 2386.87 2389.94 2415.4C2407.56 2434.29 2441.49 2440.48 2470.54 2440.3C2539.62 2439.87 2606.08 2438.19 2675.61 2441.48C3073.9 2460.32 3478.12 2480.31 3875.21 2493.64C3901.67 2494.53 3924.38 2476.21 3935.66 2454.52C3944.93 2436.69 3929.9 2411.78 3924.99 2390.52C3915.68 2350.15 3882.7 2304.79 3892.99 2269.61C3909.09 2214.55 3936.69 2197.16 3974.78 2190.19C4015.11 2182.82 4067.44 2181.65 4111.09 2192.57C4162.27 2205.36 4212.49 2229.57 4252.15 2262.5C4286.77 2291.23 4308.5 2321.29 4322.09 2364.44C4335.37 2406.63 4338.39 2457.11 4329.2 2500.76C4319.43 2547.2 4290.2 2591.68 4262.82 2631.15C4236.47 2669.15 4205.75 2705.29 4166.82 2729.54C4122 2757.44 4069.27 2780.34 4016.27 2786.44C3890.67 2800.89 3762.61 2791.8 3634.59 2791.18C2455.59 2785.47 1276.59 2790.74 99.8111 2772.18C72.2611 2771.75 47.2811 2760.46 39.3611 2743.73C33.0611 2730.43 60.9511 2695.48 79.6611 2685.65C154.201 2646.48 229.271 2616.73 314.361 2603.86C417.361 2588.28 514.451 2596.19 620.191 2590.86C794.871 2582 959.351 2576.56 1132.27 2568.34C1157.4 2567.14 1198.53 2557.47 1209.27 2533.96C1223.92 2502.03 1229.87 2464.17 1242.46 2429.65C1389.46 2026.38 1520.06 1623.58 1683.46 1226.5L1683.52 1226.41Z" stroke="white" stroke-width="77"/>
</g>
<defs>
<clipPath id="clip0_13_799">
<rect width="4373" height="2833" fill="white"/>
</clipPath>
</defs>
</svg>
