<svg width="3936" height="2831" viewBox="0 0 3936 2831" fill="none" xmlns="http://www.w3.org/2000/svg">
<g clip-path="url(#clip0_13_812)">
<path d="M2319.24 175.22C2402.47 197.6 2464.88 264.78 2486.34 355.12C2511.03 459.12 2556.26 549.84 2577.82 569.12C2604.61 593.04 2637.12 621.98 2674.16 654.92C2997.3 942.44 3669.67 1540.73 3862.94 1761.85C3895.48 1799.08 3954.68 1904.85 3929.94 1993.94C3879.46 2175.76 3733.24 2195.49 3670.8 2203.94C3662.02 2205.14 3653.71 2206.25 3649.44 2207.33L3645.66 2208.27C3536.54 2235.07 3431.28 2276.12 3349.24 2323.85C3272.24 2368.61 3192.02 2409.21 3127.52 2441.85C3072.89 2469.48 3011.81 2500.37 2990.15 2516.17C2994.02 2527.92 3004.85 2546.8 3011.94 2559.17C3033.81 2597.31 3058.6 2640.54 3043.46 2684.26C3015.46 2765.26 2757.76 2855.15 2644.52 2824.68C2643.12 2824.3 2641.75 2823.92 2640.42 2823.5C2587.05 2807.22 2444.52 2637.5 2069.86 2167.82C1991.2 2069.2 1916.92 1976.04 1852.53 1897.05C1815.24 1851.29 1811.87 1756.2 1825.93 1710.83C1836.78 1675.83 1853.39 1634.57 1869.46 1594.7C1881 1566 1891.87 1539.06 1900 1516C1906.71 1496.94 1913.9 1479.85 1920.85 1463.31C1935.85 1427.59 1948.85 1396.75 1951.36 1358.82C1954.86 1305.62 1934.84 1248.6 1915.49 1193.46L1913.25 1187.08C1899.48 1147.72 1873.51 1097.62 1848.41 1049.14C1828.41 1010.46 1809.41 973.91 1795.83 941.56C1790.83 929.74 1784.89 916.87 1778.68 903.56C1749.96 841.56 1720.27 777.56 1737.68 727.56C1752.79 684.13 1812.53 679.47 1935.41 673.82C1977.13 671.89 2038.95 669.04 2058.5 662.44C2061.77 655.59 2063.35 640.39 2061.23 634.04C2046.12 613.8 1988.38 574.36 1922.75 539.54C1856.75 504.54 1765.12 469.26 1725.94 470.93C1687.34 472.56 1647.78 503.87 1605.94 537.01C1586.55 552.36 1566.5 568.22 1545.13 582.36C1419.37 665.54 1141.98 856.28 897.248 1024.59C722.248 1144.94 556.918 1258.59 471.628 1316.07C442.628 1335.6 413.978 1377.12 409.118 1406.7C403.988 1437.96 414.118 1480.33 431.758 1501.14C441.058 1512.14 483.358 1524.04 514.258 1532.75C576.628 1550.36 647.328 1570.29 681.688 1621.55C708.508 1661.55 714.688 1727 695.838 1770.61C678.088 1811.53 636.148 1861.1 571.648 1877.61C490.288 1898.37 369.808 1796.92 232.228 1672.32C216.848 1658.39 202.978 1645.83 191.228 1635.61C130.578 1582.67 73.5581 1501.4 42.4281 1423.53C9.59812 1341.53 -4.57188 1251.14 1.34812 1162.15C7.69812 1067.22 26.7781 942.78 45.2181 822.44C49.5581 794.09 53.8481 766.13 57.8681 739.14C70.5381 654 113.998 365.94 139.588 234.19C150.888 176.01 182.228 116.84 221.348 79.79C258.758 44.4 315.228 18.91 376.348 9.79004C457.288 -2.19996 597.128 -1.79996 692.798 3.66004C791.798 9.32003 997.798 21.07 1129.07 52.66C1257.79 83.54 1361.9 103.93 1430.15 111.66C1460.25 115.05 1503.9 101.66 1546.15 88.78C1601.91 71.7 1654.6 55.59 1699.45 67.54L1700.03 67.7C1757.62 83.2 1806.85 118.93 1854.46 153.51C1903.93 189.41 1950.89 223.36 2005.79 236.72C2067.34 251.64 2113.5 229.45 2162.36 205.95C2209.98 183.08 2259.22 159.4 2318.36 175.05L2319.24 175.22ZM2665 2752.63C2751.3 2775.85 2955.2 2693 2973.09 2658.91C2976.79 2648.1 2958.89 2616.91 2947.09 2596.26C2929.24 2565.16 2910.8 2532.99 2914.4 2500.21C2918.26 2465.13 2954.78 2445.31 3093.8 2375.01C3157.42 2342.84 3236.6 2302.81 3311.65 2259.14C3399.65 2207.91 3511.98 2164.03 3627.85 2135.57L3631.15 2134.76C3639.56 2132.63 3649.41 2131.3 3660.84 2129.76C3720.59 2121.7 3820.6 2108.21 3857.89 1973.92C3873.21 1918.69 3831.36 1839.34 3806.64 1811.05C3616.45 1593.46 2946.45 997.28 2624.45 710.77C2587.39 677.77 2554.84 648.84 2528.02 624.89C2484.71 586.25 2435.81 466.16 2413.57 372.4C2406.35 342.06 2380.86 269.25 2299.87 247.47L2299.21 247.29C2268.29 239.11 2239.38 251.84 2194.74 273.29C2141.69 298.8 2075.66 330.55 1988.14 309.29C1918.83 292.43 1863.67 252.53 1810.49 213.91C1766.49 181.91 1724.83 151.72 1680.56 139.81L1680.16 139.7C1655.99 133.26 1609.25 147.56 1568.01 160.17C1518.49 175.32 1467.31 191 1421.78 185.86C1331.78 175.71 1203.42 147.31 1111.62 125.3C986.868 95.3 785.368 83.82 688.548 78.3C576.098 71.87 452.238 74.12 387.338 83.77C341.738 90.55 298.898 109.35 272.788 134.06C244.848 160.52 221.378 205.42 213.038 248.43C187.698 378.72 144.478 665.4 131.818 750.16C127.818 777.25 123.488 805.3 119.118 833.76C100.918 952.55 82.1181 1075.39 75.9481 1167.13C70.7434 1245.05 83.0051 1323.16 111.838 1395.74C138.838 1463.31 188.108 1533.61 240.388 1579.25C252.388 1589.71 266.588 1602.58 282.388 1616.87C343.008 1671.8 504.068 1817.67 553.058 1805.13C591.428 1795.33 616.938 1764.4 627.138 1740.88C635.788 1720.95 631.928 1681.75 619.508 1663.23C600.508 1634.84 541.368 1618.16 493.878 1604.77C442.798 1590.36 398.688 1577.92 374.608 1549.49C342.668 1511.75 326.488 1448.07 335.248 1394.61C343.488 1344.51 383.248 1285.4 429.778 1254.05C514.778 1196.81 679.938 1083.21 854.778 962.97C1099.78 794.5 1377.44 603.53 1503.78 519.97C1522.49 507.59 1541.27 492.72 1559.44 478.35C1608.82 439.28 1659.89 398.88 1722.72 396.2C1804.72 392.72 1951.55 470.2 1957.72 473.47C1997.14 494.36 2092 547.73 2123.1 592C2139.71 615.65 2139.1 650.14 2132.98 674.52C2126.62 699.92 2113.22 718.89 2095.3 727.94C2067.52 741.94 2017.74 744.89 1938.81 748.52C1897.73 750.42 1831.81 753.45 1807.06 760.69C1807.06 786.95 1831.33 839.32 1846.52 872.07C1853.11 886.27 1859.43 899.96 1864.73 912.55C1877.19 942.13 1895.47 977.4 1914.82 1014.75C1941.11 1065.51 1968.3 1118.01 1983.82 1162.36L1986.04 1168.69C2006.87 1228.03 2030.46 1295.28 2025.95 1363.75C2022.63 1414.17 2005.95 1453.89 1989.77 1492.3C1983.26 1507.82 1976.5 1523.89 1970.53 1540.85C1961.87 1565.43 1950.69 1593.16 1938.86 1622.52C1923.37 1660.97 1907.33 1700.73 1897.4 1732.81C1887.67 1764.2 1895.15 1830.81 1910.53 1849.65C1975.16 1928.96 2049.53 2022.25 2128.36 2121.02C2331.65 2375.89 2609.8 2724.62 2663.36 2752.13L2665.05 2752.6" fill="white"/>
</g>
<defs>
<clipPath id="clip0_13_812">
<rect width="3936" height="2831" fill="white"/>
</clipPath>
</defs>
</svg>
