<svg width="4415" height="2012" viewBox="0 0 4415 2012" fill="none" xmlns="http://www.w3.org/2000/svg">
<g clip-path="url(#clip0_13_858)">
<path d="M241.588 2010.91C217.758 2012.75 193.788 2010.76 170.588 2005.01C93.2983 1985.83 33.3683 1928.22 10.2583 1850.88C-19.6117 1750.88 21.8183 1687.41 58.3783 1631.4C68.8283 1615.4 78.6983 1600.29 87.3183 1584.12C130.688 1502.81 196.518 1399.91 260.188 1300.38C277.068 1273.99 293.798 1247.82 309.908 1222.38C377.658 1115.38 484.538 996.94 587.908 882.38C644.498 819.66 697.908 760.38 742.808 705.56C852.588 571.25 958.678 460.87 1058.14 377.48C1112.35 332 1292.56 247.07 1351.01 224.85C1381.68 213.22 1430.86 208.93 1482.94 204.37C1517.48 201.37 1568.08 196.94 1586.94 190.52C1589.24 178.16 1589.34 151.79 1589.41 135.14C1589.63 82.06 1589.82 31.94 1622.8 9.39996C1632.02 3.06996 1651.51 -5.82004 1678.5 5.05996C2142.88 192 3900.33 934 4355.27 1133.29C4389.06 1148.1 4411.67 1183.05 4414.27 1224.49C4416.89 1266.21 4397.73 1304.75 4364.22 1325.02C4287.44 1371.47 4208.22 1375.8 4098.6 1381.86C4069.4 1383.46 4036.31 1385.27 4000.44 1388.04C3791.01 1404.19 3593.98 1407.22 3465.57 1406.9C3377.12 1406.71 3289.78 1378.46 3207.88 1349.55C3178.45 1339.16 3155.3 1329.13 3134.88 1320.3C3092.65 1302.03 3062.12 1288.82 3002.38 1284.06C2958.86 1280.66 2900.3 1306.83 2864.38 1332.67C2838.66 1351.17 2821.46 1383.53 2803.24 1417.81C2798.71 1426.35 2794.24 1434.81 2789.59 1443.05C2779.18 1461.61 2763.51 1493.3 2746.93 1526.87C2675.55 1671.27 2663.22 1690.24 2636.93 1695.92C2491.31 1727.39 2215.82 1771.51 2098.18 1790.36L2089.65 1791.73C2067.65 1795.22 2043.96 1788.33 2023.16 1772.24C1999.84 1754.24 1984.32 1728.09 1981.59 1702.42C1967.51 1569.13 1943.39 1248.04 1920.11 937.51C1903.11 711.29 1887.04 496.99 1877.11 387.24C1855.22 380.85 1808.22 376.86 1792.65 379.74C1774.92 388.29 1745.15 400.93 1707.9 416.74C1614.7 456.33 1461.4 521.41 1412.78 560.91C1406.51 601.57 1421.08 764.74 1430.85 874.42C1438.75 962.93 1446.21 1046.51 1446.97 1094.2C1447.66 1138.26 1433.09 1202.3 1428.59 1220.88C1410.1 1297.45 1396.72 1320.67 1368.92 1324.37C1330.05 1330.08 1120.35 1310.21 1079.29 1303.82C1036.05 1297.12 1033.95 1251.32 1028.35 1128.93C1026.73 1093.71 1024.27 1039.8 1019.91 1010.79L1014.18 1011.38C856.608 1027.84 767.318 1040.46 748.798 1048.91C691.048 1076.75 579.798 1226.31 549.468 1335.43C533.848 1391.58 528.388 1459.79 522.598 1532.01C511.328 1672.85 498.548 1832.45 399.668 1934.2C355.258 1979.87 299.258 2006.47 241.668 2010.92M1667.2 83.53C1665.62 98.78 1665.55 120.53 1665.5 135.38C1665.3 182.67 1665.16 220.02 1644.65 243.05C1622.02 268.47 1575.84 273.59 1489.31 281.13C1446.76 284.86 1398.51 289.06 1377.66 296.99C1316.47 320.22 1148.95 401.29 1106.66 436.76C1010.86 517.08 908.168 624 801.428 754.6C755.428 810.93 701.328 870.83 644.088 934.28C542.888 1046.41 438.248 1162.39 373.998 1263.85C357.838 1289.36 340.998 1315.61 324.098 1342.12C261.238 1440.37 196.248 1541.98 154.318 1620.58C144.078 1639.76 132.818 1657.05 121.908 1673.75C88.0483 1725.59 63.5983 1763.05 83.1483 1828.52C98.4083 1879.58 137.908 1917.59 188.828 1930.22C244.108 1943.96 301.158 1925.72 345.338 1880.22C424.828 1798.46 435.928 1659.89 446.668 1525.89C452.748 1449.83 458.498 1378 476.118 1314.66C507.888 1200.47 624.868 1023.32 716.118 979.35C743.698 966.06 822.378 953.97 1006.42 934.74C1020.56 933.28 1031.42 932.13 1037.51 931.43C1049.51 929.69 1061.51 933.69 1070.97 941.84C1094.87 962.37 1098.97 1005.93 1104.38 1125.21C1105.92 1158.65 1108.08 1205.8 1111.58 1230.44C1171.32 1237.59 1293.72 1247.44 1341.7 1248.36C1353.39 1214.93 1371.41 1135.93 1370.76 1095.53C1370.05 1050.69 1362.76 968.47 1354.95 881.42C1328.67 586.86 1328.63 534.79 1354.71 509.97C1401.62 465.34 1534.62 406.82 1678.45 345.73C1714.75 330.31 1746.12 316.99 1761.72 309.35C1791.93 294.59 1886.88 302.91 1923.06 323.47C1945.63 336.27 1950.5 354.21 1951.4 363.76C1961.24 468.38 1978.11 693.35 1996.01 931.55C2019.25 1241.48 2043.32 1561.97 2057.29 1694.1C2058.15 1702.18 2072.01 1715.29 2078.36 1715.59L2086.36 1714.26C2200.52 1695.99 2464.14 1653.78 2610.31 1622.91C2625.17 1601.02 2658.25 1534.06 2678.8 1492.5C2695.8 1458.03 2711.94 1425.44 2723.32 1405.14C2727.67 1397.39 2731.91 1389.44 2736.14 1381.43C2756.72 1342.72 2780.04 1298.86 2820.32 1269.9C2865.14 1237.68 2941.32 1202.04 3008.48 1207.27C3080.72 1213.02 3119.76 1229.91 3164.96 1249.47C3185.21 1258.24 3206.18 1267.31 3233.13 1276.82C3308.89 1303.58 3389.28 1329.71 3465.91 1329.87C3592.96 1330.19 3787.85 1327.2 3994.81 1311.23C4031.51 1308.4 4065.04 1306.56 4094.62 1304.94C4200.68 1299.11 4264.62 1295.61 4325.22 1258.94C4338.22 1251.09 4338.69 1235.73 4338.29 1229.49C4337.54 1217.57 4332.02 1207.06 4324.89 1203.92C3875.69 1007.15 2155.65 280.88 1667.2 83.53Z" fill="white"/>
</g>
<defs>
<clipPath id="clip0_13_858">
<rect width="4415" height="2012" fill="white"/>
</clipPath>
</defs>
</svg>
