<svg xmlns="http://www.w3.org/2000/svg" viewBox="0 0 4063.67 3240.99"><defs><style>.cls-1{fill:#fff;}</style></defs><title>Jeddah Corniche - White_1</title><g id="Layer_2" data-name="Layer 2"><g id="Layer_1-2" data-name="Layer 1"><path class="cls-1" d="M0,3241v-34.84q36.36,0,46.71-8.84t10.36-46.21V2855.17H95.45l.5,301.48q0,42.43-14.14,62.12-11.62,16.67-45.95,20.71A339.14,339.14,0,0,1,0,3241Z"/><path class="cls-1" d="M179.77,3204.63V2855.17H392.38v34.34H218.66v120.7H362.08V3044H218.66v126.25H392.38v34.34Z"/><path class="cls-1" d="M583.77,3204.63H459V2855.17H583.77q85.34,0,113.12,67.67,16.15,38.89,16.16,102,0,131.8-65.65,166.14Q621.14,3204.63,583.77,3204.63Zm89.39-179.78q0-100.48-44.95-125.24-18.18-10.09-44.44-10.1H497.92v280.78h85.85Q673.16,3170.29,673.16,3024.85Z"/><path class="cls-1" d="M909.49,3204.63H784.75V2855.17H909.49q85.34,0,113.12,67.67,16.16,38.89,16.16,102,0,131.8-65.65,166.14Q946.86,3204.63,909.49,3204.63Zm89.38-179.78q0-100.48-44.94-125.24-18.18-10.09-44.44-10.1H823.64v280.78h85.85Q998.88,3170.29,998.87,3024.85Z"/><path class="cls-1" d="M1072.6,3204.63l96-349.46h84.84l95.95,349.46H1311l-25.25-89.89H1136.23L1111,3204.63Zm125.24-316.13-53,191.4h132.31l-53-191.4Z"/><path class="cls-1" d="M1621,3204.63V3046.57H1443.27v158.06h-38.89V2855.17h38.89v156.55H1621V2855.17h38.38v349.46Z"/><path class="cls-1" d="M2067.44,3199.07q-52,10.62-93.43,10.61t-66.91-11.36a83.75,83.75,0,0,1-39.39-35.35q-13.9-24-19.19-55t-5.3-77.52q0-46.46,5.3-78t19.19-55.8a82.23,82.23,0,0,1,39.14-35.35q25.25-11.1,65.65-11.11t94.94,11.11l-1.52,32.83q-51-9.11-90.9-9.09-55.56,0-73.48,33.07t-17.92,112.87q0,39.9,3.28,64.14a140.37,140.37,0,0,0,12.88,43.68q9.59,19.44,28,27.77t54,8.33q35.6,0,84.08-9.09Z"/><path class="cls-1" d="M2387.61,3032.42q0,93.43-29.8,135.34t-108.32,41.92q-78.52,0-108.32-42.93t-29.8-135.08q0-92.16,30.3-136.86t107.57-44.69q77.27,0,107.82,44.44T2387.61,3032.42Zm-236.34-1q0,76.77,20.2,110.35t78,33.58q57.83,0,77.77-32.83t19.95-110.09q0-77.27-20.71-112.61T2249,2884.46q-56.82,0-77.27,35.1T2151.27,3031.41Z"/><path class="cls-1" d="M2497.69,3070.81v133.82h-38.88V2855.17h129.28q55.54,0,83.58,25.75t28,80.3q0,80.81-64.13,101.51l67.16,141.9H2659.8l-63.13-133.82Zm90.9-34.34q71.2,0,71.21-73.48t-71.71-73.48h-90.4v147Z"/><path class="cls-1" d="M2769.89,3204.63V2855.17h72.72l133.82,315.12H2987V2855.17h38.38v349.46h-71.21l-135.84-315.12h-9.6v315.12Z"/><path class="cls-1" d="M3111.26,3204.63V2855.17h38.89v349.46Z"/><path class="cls-1" d="M3446.58,3199.07q-52,10.62-93.43,10.61t-66.91-11.36a83.8,83.8,0,0,1-39.39-35.35q-13.91-24-19.19-55t-5.3-77.52q0-46.46,5.3-78t19.19-55.8a82.23,82.23,0,0,1,39.14-35.35q25.25-11.1,65.65-11.11t94.94,11.11l-1.52,32.83q-51-9.11-90.9-9.09-55.56,0-73.48,33.07t-17.92,112.87q0,39.9,3.28,64.14a140.37,140.37,0,0,0,12.88,43.68q9.59,19.44,28,27.77t54,8.33q35.59,0,84.08-9.09Z"/><path class="cls-1" d="M3726.85,3204.63V3046.57H3549.09v158.06H3510.2V2855.17h38.89v156.55h177.76V2855.17h38.38v349.46Z"/><path class="cls-1" d="M3851.07,3204.63V2855.17h212.6v34.34H3890v120.7h143.42V3044H3890v126.25h173.71v34.34Z"/><path class="cls-1" d="M304.7,2444a185.82,185.82,0,0,1-27.9-1.26,77,77,0,0,1-25.22-8A174.85,174.85,0,0,1,231.15,2423a139,139,0,0,1-19.78-16.22,137,137,0,0,1-16.12-19,132.09,132.09,0,0,1-12.53-22.3,135,135,0,0,1-9.68-29.95,175.13,175.13,0,0,1-2.92-30.12,88.29,88.29,0,0,1,1.87-21.75,131.49,131.49,0,0,1,6.15-20.44,117.64,117.64,0,0,1,9.86-19.33,168,168,0,0,1,10.88-15.41,170.94,170.94,0,0,1,11.5-13.32,131.52,131.52,0,0,1,11.33-10.29c5.17-4.21,8.56-6.21,35.69-19.66C272,2178,294.44,2167,323,2153l165.53-81.34c37.81-18.61,73.63-36.24,99.34-48.84,46.73-22.9,60.55-29.43,73.88-35.44s26.23-11.48,38.9-16.9c13-5.55,25.29-10.82,37.72-15.87,12.86-5.17,25.77-10.08,37.53-14.28,11.93-4.24,22.7-7.73,33.12-10.87,11.58-3.46,21.64-6.17,30.75-8.22,9.65-2.21,18.6-3.78,25.74-5a208,208,0,0,1,25.21-2.8c10.48-.63,26.48-1.13,42.05-1.46l12.75-.22c10.16-.17,19.78-.32,28.16-.69a251.13,251.13,0,0,0,27.5-2.59c7.64-1.17,16.13-2.83,23.92-4.69,6.88-1.62,12.12-3.14,17-4.65s9.17-2.91,14-4.5l1.6-.53c6-2,12.69-4.07,19-5.92a190.21,190.21,0,0,1,20-4.94,104.25,104.25,0,0,1,19.72-1.51,137.47,137.47,0,0,1,18.55,1.36,104.76,104.76,0,0,1,18.13,4.35,128.68,128.68,0,0,1,17,7,168,168,0,0,1,16.36,9.51,163.94,163.94,0,0,1,13.82,10.14c4.44,3.56,9.25,7.76,14.1,12.52,4.56,4.47,9.15,9.41,13.77,14.58l12.15,13.54a108.4,108.4,0,0,0,9.64,9.67,88.55,88.55,0,0,0,10.15,7.2,86.38,86.38,0,0,0,9.06,4.86c2.82,1.28,5.68,2.45,8.21,3.31a12.91,12.91,0,0,0,3.5.8c3.69.41,8.47.53,13.72.62,5.79.08,12,0,17.22-.22a39.61,39.61,0,0,0,8.66-1.16c2.94-.8,7.56-2.58,21.43-8.28,15.09-6.21,39.93-16.53,56.44-23.51,16.06-6.8,24-10.33,31.68-13.86,6-2.77,13.52-6.36,19.33-9.66a57.33,57.33,0,0,0,9.94-6.81,51,51,0,0,0,6.13-6.9,29.11,29.11,0,0,0,2.58-3.59,25.18,25.18,0,0,0,1.2-4.07c.73-3.09,1.38-6.69,2-11.28.43-3.24.85-7,1.28-10.84l1-8.94c.9-7.83,2-15.5,3.33-22.59a137.7,137.7,0,0,1,6.91-24.48,170.08,170.08,0,0,1,12.38-25.19,159,159,0,0,1,16.6-22.85,177.15,177.15,0,0,1,20-19.3c4.6-3.85,9.66-7.8,14.63-11.67l12.27-9.7c4.19-3.36,8.15-6.54,12-9.45a205.83,205.83,0,0,1,19.6-13.18c6.12-3.6,12.83-7.1,19.93-10.38a178.8,178.8,0,0,1,21.11-8.26,165.36,165.36,0,0,1,23.85-5.77,139.16,139.16,0,0,1,25.24-1.76,205.09,205.09,0,0,1,24.92,2.15c7,1,14.22,2.42,22.6,4.37,5.06,1.21,10.09,2.5,15.1,3.79l5.39,1.38a148.69,148.69,0,0,0,15.66,3.38,112.76,112.76,0,0,0,16.16.9,149.6,149.6,0,0,0,20.19-1.17,112.63,112.63,0,0,0,18.78-4.38,102,102,0,0,0,15.79-6.48,125.26,125.26,0,0,0,14-8.6c5.12-3.58,9.9-7.25,14.17-10.88s8.52-7.65,12.61-11.87c3.67-3.8,6.9-7.42,9.17-10.3a73,73,0,0,0,5.08-7.52c2.23-3.61,5.39-8.66,7.85-13.45a93.26,93.26,0,0,0,4.94-11.48,44.88,44.88,0,0,0,2.42-8.2,102,102,0,0,0,1.47-14.16c.29-6.43.23-13.77.05-20.67s-.55-13.54-1.12-20c-.32-3.71-.71-7.31-1-10.51s-.65-6-.84-8.29c-.45-5.35-1.3-15.3,3.4-26.25a56.84,56.84,0,0,1,12-17.41,90.48,90.48,0,0,1,10.57-9.17,92.31,92.31,0,0,1,13.3-8.65c2.47-1.3,5.31-2.67,8.7-4.27,2.37-1.12,5.07-2.4,8.16-3.93,6.73-3.36,15.19-7.91,23.92-12.71s17.62-9.82,26.41-15.28c6.57-4.06,13.12-8.37,19.69-12.7l7.51-4.91c9.43-6.18,19.06-12.26,28.48-18.19,9.94-6.28,18.67-11.79,27.88-17.76,9.48-6.14,19.5-12.78,30.27-19.93l1.25-.84c10.57-7,21.82-14.51,33.38-22.08l8.45-5.52c9.08-5.94,18.37-12,27.93-18.52,6-4.15,12.24-8.5,18.39-12.8,6.74-4.75,13.43-9.44,19.86-13.81,12.47-8.49,24.26-16,36.1-23.1,11.5-6.88,22.85-13.16,33.65-18.67,10.35-5.29,20.88-10.17,30.49-14.18,8.23-3.42,15.44-6.06,23.37-8.54a161.35,161.35,0,0,1,28.07-6.25c13.84-1.88,31.27-3,40.46-3.43,6.93-.38,13.62-.63,19.79-.85,5.48-.21,10.49-.39,14.86-.64,8.06-.44,13.4-1.07,20.46-2.09s15.12-2.27,22.82-3.9a135.31,135.31,0,0,0,18.29-5,39.72,39.72,0,0,0,8.41-4.07,6.29,6.29,0,0,0,1.18-1.53c-.89-.92-2-2-3.39-3.29-2-1.83-4.22-3.76-6.37-5.64-3.12-2.72-6.18-5.38-8.77-7.82-7.11-6.71-12.14-12.92-15.94-19.64a64.36,64.36,0,0,1-5.22-51.51c2.61-7.95,6.81-15.57,13.22-23.93,5.68-7.36,8.24-10.71,117.08-112.32,99.7-93.09,303.45-282.48,426.35-395.62,119.19-109.73,155.1-141,186.47-166.24,30-24.08,55.17-42.19,130-96l10.94-7.87c62.87-45.24,158.36-114,230.89-166.3l59.07-42.56c68.32-49.22,68.43-49.32,74.16-54.15,7.71-6.48,22-18.47,33.76-26.65,14.2-9.79,26.27-15,40.42-17.4a114.73,114.73,0,0,1,38,0,93.16,93.16,0,0,1,33.58,12.87,106,106,0,0,1,25.5,22.28,140.92,140.92,0,0,1,20.4,31.43,92.35,92.35,0,0,1,8.41,36.45c.31,10.7-1,21.08-3.2,34.34-2,12-5.11,28.25-8.25,44.73l-10.86,56.53c-4,20.36-8.56,43.91-13.18,67.1-4.69,23.5-9.42,46.64-13.87,66-4.3,18.57-8.57,34.61-14.29,53.65-5.94,19.76-12.23,38.63-18.67,56.14-6.74,18.35-14.43,37.26-22.25,54.67-7,15.7-13.74,29.28-23.2,46.85C3803,603,3792,622.2,3782,638.67c-10.77,17.74-22,34.82-34.28,52.2-12.17,17.2-25.46,34.74-37.4,49.41-10.85,13.31-21.63,25.56-35,39.68-11.62,12.31-23.07,23.87-35,35.37-12.9,12.4-26.17,24.55-39.47,36.12-12.82,11.16-27.11,23-44.93,37.37-16.23,13.06-34.38,27.32-52.23,41.21-16.13,12.57-34.91,27.07-51.93,39.28-16.69,11.93-31.84,21.83-46.38,30.28-13.3,7.72-26.91,14.74-42.83,22.1-14.6,6.71-28.53,12.55-42.67,17.83-15.61,5.88-30.67,10.8-46,15a439.83,439.83,0,0,1-49.53,10.84,427.23,427.23,0,0,1-48.33,4.31c-21.4.89-40.33,1-59.59.38-21.83-.74-45.1-2.53-71.08-4.62-23.86-1.91-47.36-3.83-72-6.17l-27.45-2.67c-15.07-1.49-29.48-2.91-41.31-3.89-16.45-1.38-28.24-1.9-39.4-1.75-13,.17-19.81,1.13-22.7,1.68-3.76.73-6.35,1.84-12.38,4.46s-13.36,5.78-19.09,8.83c-4.14,2.21-7.16,4.27-20.15,13.81l-53.31,39.33c-10.92,8.06-16.94,12.45-21.91,16.58a83.67,83.67,0,0,0-11,10.79,124.6,124.6,0,0,0-10.46,14.37,90.44,90.44,0,0,0-7.37,14.93,176.15,176.15,0,0,0-5.63,18.17c-1.5,5.74-2.65,10.74-3.56,15.79-.51,2.77-.93,5.6-1.35,8.35-.47,3-.92,5.94-1.4,8.7a124.2,124.2,0,0,1-5.3,20.63,136.85,136.85,0,0,1-10.38,22.44,210.05,210.05,0,0,1-13.88,21,113.83,113.83,0,0,1-15.77,17.62A93.45,93.45,0,0,1,2612.5,1320a115.5,115.5,0,0,1-18.9,8.75c-7.69,2.67-15.11,3.9-23.83,5l-7.14.81c-5.41.59-11.88,1.29-19.81,2.41-8.79,1.25-23.15,3.53-41.87,7.4-16.23,3.34-34.32,7.61-51,12-16.09,4.29-30.89,8.74-45.22,13.64-14.79,5-28.09,10.23-41.84,16.25-14.77,6.48-30.18,14-45.8,22.32-15.31,8.15-31.41,17.41-45.38,26.09-12.54,7.8-23.47,15.21-34.46,23.29-8.85,6.55-17.95,13.69-27.81,21.81-9,7.37-15.32,12.92-22,19.22-8.2,7.86-16.17,16.19-23.58,24.7-7.16,8.22-15.09,18.06-24.27,30-8.27,10.84-13.94,18.68-18.88,26.13-5.75,8.7-11.12,17.73-16.52,26.91l-1.09,1.84c-5.63,9.57-11.4,19.35-18.5,30.09-8,12.13-17.2,24.74-25.89,35.53a365.5,365.5,0,0,1-26.63,29.7c-8.74,8.78-18.32,17.77-29.3,27.49-11.62,10.3-22.94,19.72-32.7,27.22-12,9.17-22.58,16.23-31.36,21.91-13.23,8.56-24.43,15.29-35.25,21.2A377.41,377.41,0,0,1,1863,1821c-10.17,4.11-20.58,7.7-31,11.28l-9.07,3.13c-12.39,4.34-24.65,8.9-35.42,13.21-10.61,4.23-19.73,8.18-27.85,11.89s-15.33,7.18-21.78,10.41a160.83,160.83,0,0,0-17.7,9.8c-6.18,4-14.86,10.08-24.39,17.21-7.78,5.81-14.1,10.75-21.61,17.49-8,7.13-17.05,16.07-26.89,25.83-10,9.9-20.75,20.66-31.45,32.13s-21.47,23.78-31,34.67l-5.38,6.16c-7.67,8.8-14.75,16.91-22.4,25.46-9.52,10.65-19.82,21.92-28.53,31.15-9.32,9.86-16.73,17.26-24,24-7.94,7.38-15.59,13.84-24.11,20.4s-18,13.21-27.86,19.64c-9.59,6.26-19.24,12-29.48,17.71-9.46,5.21-19.83,10.5-31.72,16.22-12.63,6.06-24.07,11.17-35,15.66-11.61,4.77-24.15,9.46-36.26,13.55-12.39,4.18-23,7.34-32.62,9.65a213.74,213.74,0,0,1-28.73,5.06,211.16,211.16,0,0,1-24.71,1c-7.73-.1-16-.4-22.58-.84a96.44,96.44,0,0,1-40.66-10.52c-5.78-2.73-12.49-6.1-18.83-9.74a167.91,167.91,0,0,1-19.63-13,154.73,154.73,0,0,1-16.75-15.19c-4.66-4.89-8.84-9.78-13.22-15.22l-4.8-6c-2.19-2.75-4.46-5.61-6.87-8.5a94,94,0,0,0-9.66-10.44,65.85,65.85,0,0,0-9.67-6.76,21.43,21.43,0,0,0-2.24-1.27,50.6,50.6,0,0,0-8.05-1.2,22.18,22.18,0,0,0-6.28.39,108.46,108.46,0,0,0-14.85,4.23c-7.66,2.63-17,6.29-24.76,9.38l-3,1.22c-7.42,3-13.65,5.5-20.16,7.68a202.33,202.33,0,0,1-27.2,6.92c-9.26,1.73-20.2,3.3-30.85,4.44-10,1-18.71,1.64-27.26,2-10.22.44-18.35.52-25.61.23-8-.32-15.17-1.12-23.5-2.09-7.64-.92-16.19-2-23.84-3l-5-.66c-5.16-.69-9.86-1.34-14.15-1.78a151,151,0,0,0-16.55-.68c-8.34,0-19.89.22-28.63.47-9.11.25-13.87.46-20,1.17-6.78.78-15.35,2.17-24.78,4-10.73,2.06-20.52,4.33-30,6.91a274.34,274.34,0,0,0-31.91,10.73c-10.58,4.3-23,10.17-34.86,16.48A314.71,314.71,0,0,0,599.54,2200,282,282,0,0,0,577,2217.18c-7.22,6-14,12.12-20.09,18.08-7.17,7-12.62,13-15.95,16.74-3.13,3.58-5.76,6.82-8.46,10.12l-7,8.43c-3.13,3.77-6.46,7.73-9.46,11.76a178.75,178.75,0,0,0-9.92,14.94c-2.46,4-4.78,8-7.23,12.21l-3.12,5.28c-4,6.8-8.46,14.4-13.56,22.23s-11.05,16.15-16.68,23.38c-4.91,6.39-10,12.38-15.83,18.81a185.86,185.86,0,0,1-17.94,17.37,227.36,227.36,0,0,1-23.44,17.12A195,195,0,0,1,383,2427.4a179.94,179.94,0,0,1-25.06,9,211.3,211.3,0,0,1-26,5.63,205.83,205.83,0,0,1-27.22,2m625.05-460.59c-12.24.28-24.14.68-32.44,1.17a141.32,141.32,0,0,0-18.32,2c-6,1-13.66,2.31-21.93,4.2-7.71,1.74-16.36,4.05-26.51,7.08-9.43,2.82-19.21,6-30.06,9.83s-23,8.48-35,13.29-24,10-36.15,15.16c-12.82,5.47-25.39,10.83-38.29,16.6-12.63,5.69-26,12-72,34.5-25.71,12.57-61.56,30.17-99.35,48.76l-165.85,81.32c-28.4,13.9-50.76,24.82-65.36,32.06-5.36,2.65-21.74,10.76-24.6,12.55-.92.8-2.91,2.56-5,4.65a96.94,96.94,0,0,0-6.83,8,103.49,103.49,0,0,0-6.75,9.49,53.14,53.14,0,0,0-4.37,8.44,63.76,63.76,0,0,0-2.72,9.07c-.29,1.35-.37,1.81-.31,5.37a103.18,103.18,0,0,0,1.55,17.1,63,63,0,0,0,4.47,13.51,58.56,58.56,0,0,0,5.53,9.92,63,63,0,0,0,7.35,8.62,67,67,0,0,0,9.52,7.8,108.2,108.2,0,0,0,12.1,6.9c2.7,1.33,3,1.37,4.51,1.59a134.06,134.06,0,0,0,17.75.61,130,130,0,0,0,36.87-5.33,116.33,116.33,0,0,0,16.33-5.81,133,133,0,0,0,17-9.27,167.09,167.09,0,0,0,16.64-12.13A120,120,0,0,0,399.31,2329c3.89-4.27,8-9,12.31-14.61,4.6-5.94,9.4-12.67,13.57-19,4.44-6.8,8.34-13.41,11.81-19.37l3.06-5.23c2.67-4.58,5.2-8.89,7.86-13.25,3.34-5.52,7.92-12.81,13.48-20.22,3.64-4.9,7.74-9.85,11.63-14.51l6.55-7.93c3.13-3.83,6.21-7.59,9.9-11.82,5.9-6.73,12.63-13.79,19.47-20.46,7.26-7.1,15.27-14.32,23.76-21.43a340,340,0,0,1,27.7-21.08,376.85,376.85,0,0,1,34.24-20.48c9.75-5.2,24.72-12.76,40.81-19.32A341,341,0,0,1,674.68,2087c11-3,22.37-5.66,34.66-8.06,11.16-2.18,21.18-3.79,29.73-4.8,9.31-1.07,16.54-1.35,25.76-1.6s21.6-.56,30.5-.54a211.83,211.83,0,0,1,23.34,1c4.91.49,10.32,1.21,16.25,2l4.85.64c7.43,1,15.69,2,23,2.87,6.39.75,12,1.4,18.2,1.65s13,.06,20-.24c7.27-.33,14.71-.83,23.17-1.74,8.83-.94,18.16-2.3,25.64-3.7a138.63,138.63,0,0,0,18.47-4.66c5.23-1.76,10.31-3.85,16.39-6.31l3.17-1.29c8.73-3.49,19.22-7.58,27.78-10.53a168.83,168.83,0,0,1,24.38-6.75,88.83,88.83,0,0,1,22.68-1.34A116.89,116.89,0,0,1,1084,2047a76.35,76.35,0,0,1,20.38,8.93,140.73,140.73,0,0,1,20.37,14.5,167.43,167.43,0,0,1,18.23,19.2c2.72,3.31,5.24,6.47,7.67,9.5l4.47,5.56c3.09,3.82,6,7.24,9.13,10.53a76.84,76.84,0,0,0,8.51,7.73,96.62,96.62,0,0,0,11.09,7.29c4.59,2.63,9.5,5.07,13.66,7a53.42,53.42,0,0,0,7,2.91,47.07,47.07,0,0,0,8.33,1c5.52.36,12.41.6,18.84.67a136.66,136.66,0,0,0,17.07-.64,147.91,147.91,0,0,0,19.83-3.54c7.64-1.86,16.49-4.49,27-8,10.77-3.67,21.94-7.84,32.27-12.1,9.73-4,20-8.63,31.5-14.14,10-4.8,19.43-9.59,28.37-14.53,8.79-4.85,17.06-9.82,25.26-15.19,8.48-5.54,16.66-11.31,23.69-16.71,6.84-5.26,13-10.48,19.37-16.4,6.14-5.7,12.57-12.17,20.87-20.94s18.16-19.59,27.23-29.76c7.43-8.32,14.35-16.24,21.82-24.82l5.4-6.19c9.93-11.39,21.14-24.22,32.39-36.28s22.67-23.51,33.22-34c9.79-9.7,20.13-19.88,29.26-28.09,9.34-8.38,17.22-14.55,26.18-21.26,7.6-5.68,18.67-13.76,28.28-19.93a230.5,230.5,0,0,1,24-13.37c7-3.51,14.83-7.29,23.74-11.37s19.07-8.49,30.79-13.17c5-2,10.21-4,15.64-6.07a155.72,155.72,0,0,1-16.8-1.47,205.69,205.69,0,0,1-23.27-4.9l-5.58-1.43c-4.59-1.19-9.2-2.38-13.71-3.46-5.44-1.27-10.82-2.4-16.56-3.23a127.49,127.49,0,0,0-16.1-1.44,69.26,69.26,0,0,0-13,.85,100.17,100.17,0,0,0-14.12,3.45,112,112,0,0,0-13.45,5.27c-4.64,2.15-9.45,4.59-14,7.28a141,141,0,0,0-13.25,8.93c-3.34,2.54-6.83,5.33-10.51,8.29l-13,10.26c-4.35,3.41-8.8,6.87-12.85,10.24a111.16,111.16,0,0,0-12.64,12.09,90.48,90.48,0,0,0-9.47,13.08,98.68,98.68,0,0,0-7.24,14.63,69,69,0,0,0-3.45,12.42c-1,5.36-1.81,11.25-2.51,17.36l-1,8.45c-.49,4.44-1,8.71-1.48,12.52a181.64,181.64,0,0,1-3.33,18.47,89.12,89.12,0,0,1-6.26,18.3,85.13,85.13,0,0,1-9.93,15.44,115.1,115.1,0,0,1-14.26,15.72,120.82,120.82,0,0,1-21.66,15.26c-7.87,4.45-16.66,8.64-24.24,12.13-8.15,3.78-16.64,7.54-33.76,14.78-16.71,7.05-41.84,17.47-57.11,23.72s-22.31,9.06-29.51,11a105.49,105.49,0,0,1-22.36,3.32c-6.61.34-14.64.41-22,.27-8.83-.13-15.11-.46-20.33-1.06a82.09,82.09,0,0,1-18.33-4.14c-4.72-1.63-9.9-3.7-15.09-6.1a158.17,158.17,0,0,1-16.65-8.95,164.45,164.45,0,0,1-19.23-13.79,178.22,178.22,0,0,1-16.53-16.37c-2.65-2.89-5.31-5.88-8-8.86l-4.61-5.15c-3.58-4-7.06-7.79-10.45-11.15-3-2.9-6-5.5-8.73-7.75s-5.14-4-8-5.88a86.85,86.85,0,0,0-8.85-5.18,58.59,58.59,0,0,0-7.53-3.09,36.83,36.83,0,0,0-6.51-1.59,69.23,69.23,0,0,0-9.1-.62,34.72,34.72,0,0,0-7.61.52,117.81,117.81,0,0,0-12.76,3.21c-5.72,1.68-11.8,3.63-17.22,5.37l-1.53.51c-5.21,1.69-9.92,3.22-15,4.8-6.07,1.87-12.65,3.76-21.2,5.79-9.51,2.25-19.92,4.28-29.31,5.69a311.21,311.21,0,0,1-34.59,3.26c-8.91.39-19.17.55-30,.71l-12.51.2-7,.15m1046.48-443.72c.38,3.46.77,7.24,1.1,11.08.68,7.77,1.12,15.76,1.38,24.29.25,8.71.27,17.89-.07,26.1a177.11,177.11,0,0,1-2.66,24.31,115.53,115.53,0,0,1-5.45,19.29,168.29,168.29,0,0,1-8.47,19.46c-1.82,3.54-3.94,7.26-6,10.69,9.3-8.27,17.37-15.89,24.69-23.25a302.91,302.91,0,0,0,21.88-24.39c7.29-9.07,15.36-20.18,22.15-30.42,6.36-9.63,11.54-18.45,16.61-27.07l1.09-1.84c6-10.21,12-20.24,18.37-29.88,5.81-8.8,12.26-17.74,21.54-29.9,10.06-13.15,18.86-24,26.94-33.34,8.76-10.06,18.16-19.91,27.92-29.26,2.12-2,4.21-4,6.33-5.89-3,2-5.91,3.85-8.79,5.72-9.46,6.12-18.42,11.76-27.56,17.54-10.17,6.39-19.5,12.28-28.66,18.26l-7.35,4.81c-7.1,4.64-14.13,9.27-21.23,13.65-9.83,6.08-19.76,11.69-29.41,17s-19,10.31-26.44,14c-3.55,1.76-6.68,3.24-9.41,4.53-2.29,1.09-4.22,2-5.87,2.86a26,26,0,0,0-2.65,1.64m440.27-249.91c-7.18.55-13.51,1.18-18.32,1.82a93.42,93.42,0,0,0-16.75,3.73c-5.9,1.84-11.11,3.75-17.41,6.37-7.93,3.27-17.06,7.52-25.74,11.93-9.46,4.82-19.47,10.38-29.73,16.49-1.59.95-3.2,1.91-4.79,2.89q14.31-7.08,28.2-13.18c15.55-6.84,30.53-12.69,47.19-18.4,12.09-4.14,24.39-8,37.35-11.65m147.3-158.19c1.45,1.31,3.06,2.7,4.7,4.13,2.72,2.37,5.5,4.78,8,7.08a127.53,127.53,0,0,1,15.65,16.88,65.32,65.32,0,0,1,10.72,20.38,56.55,56.55,0,0,1,2.58,19.64c.31-1.83.61-3.69,1-5.53,1.21-6.74,2.72-13.39,4.74-21.14a243,243,0,0,1,8-25.51,160.49,160.49,0,0,1,13-26.32,188.4,188.4,0,0,1,16.6-22.82,149.45,149.45,0,0,1,19.4-19.14c5.64-4.69,12.49-9.79,25-19l53.3-39.38c13.36-9.82,19.64-14.35,28.46-19.08,7.74-4.14,16.79-8.1,24.07-11.27,7.59-3.31,15.47-6.74,27-9,9.55-1.86,21.19-2.79,35.6-3,13.55-.19,27.42.39,46.34,1.94,12.15,1,27,2.44,42.46,4l27.11,2.61c24.3,2.28,47.43,4.15,70.95,6,25,2,47.42,3.68,67.7,4.34,17.32.59,34.42.45,53.87-.41a349.62,349.62,0,0,0,40.25-3.55,366.53,366.53,0,0,0,41.26-9.1c13.22-3.67,26.26-7.94,39.86-13.07,12.54-4.7,24.91-9.89,37.84-15.86,13.82-6.4,25.56-12.46,36.9-19.05,12.56-7.31,25.88-16,40.7-26.65,16-11.48,34.07-25.44,49.64-37.59,17.53-13.65,35.32-27.68,51.27-40.52,17.1-13.77,30.7-25.09,42.83-35.64,12.38-10.8,24.78-22.15,36.81-33.74,11.12-10.71,21.77-21.48,32.59-33,12.09-12.84,21.84-23.91,31.58-35.87,11-13.47,23.21-29.67,34.5-45.61,11.48-16.25,21.52-31.56,31.61-48.14,9.41-15.46,19.71-33.5,29.05-50.82,8.58-16,14.64-28.2,20.94-42.24,7-15.77,14.29-33.59,20.4-50.23,6-16.2,11.8-33.71,17.33-52.06,5.23-17.49,9.17-32.22,13.09-49.2,4.32-18.71,8.91-41.11,13.44-63.87,4.61-23.05,9.19-46.46,13.12-66.65l10.8-56.23c3-15.94,6-31.6,8-43.17,1.77-10.64,2.4-16.22,2.26-20.57a19.38,19.38,0,0,0-1.83-8.38,66,66,0,0,0-9.2-13.89,30.35,30.35,0,0,0-7.4-6.76,15.8,15.8,0,0,0-6-2.33,38.3,38.3,0,0,0-12,0c-1.84.3-4.15.69-11.12,5.51-9,6.24-22.15,17.26-28.46,22.56-7.89,6.64-7.89,6.64-78.48,57.46h0l-59.15,42.57c-72.62,52.26-168.28,121.08-231.25,166.34l-10.94,7.86c-73.82,53-98.66,70.87-127.22,93.79-30.16,24.19-65.28,54.81-183.16,163.24C2976.8,745.61,2772.91,935,2673.12,1028c-84.34,78.65-105.3,98.85-109.32,103.61M3689,129.23h0Z"/></g></g></svg>